%TF.GenerationSoftware,KiCad,Pcbnew,8.0.6*%
%TF.CreationDate,2025-02-12T15:56:16-05:00*%
%TF.ProjectId,PCB,5043422e-6b69-4636-9164-5f7063625858,rev?*%
%TF.SameCoordinates,Original*%
%TF.FileFunction,Paste,Top*%
%TF.FilePolarity,Positive*%
%FSLAX46Y46*%
G04 Gerber Fmt 4.6, Leading zero omitted, Abs format (unit mm)*
G04 Created by KiCad (PCBNEW 8.0.6) date 2025-02-12 15:56:16*
%MOMM*%
%LPD*%
G01*
G04 APERTURE LIST*
%ADD10R,2.600000X2.600000*%
%ADD11R,3.000000X2.000000*%
%ADD12C,1.500000*%
%ADD13R,1.300000X2.300000*%
%ADD14R,2.300000X1.300000*%
G04 APERTURE END LIST*
D10*
%TO.C,MX5*%
X50725000Y-65450000D03*
X62275000Y-63250000D03*
%TD*%
%TO.C,MX15*%
X86725000Y-90950000D03*
X98275000Y-88750000D03*
%TD*%
%TO.C,MX2*%
X32725000Y-73950000D03*
X44275000Y-71750000D03*
%TD*%
D11*
%TO.C,U2*%
X27500000Y-27592015D03*
X27500000Y-30132015D03*
X27500000Y-32672015D03*
X27500000Y-35212015D03*
X27500000Y-37752015D03*
X27500000Y-40292015D03*
X27500000Y-42832015D03*
X44500000Y-42832015D03*
X44500000Y-40292015D03*
X44500000Y-37752015D03*
X44500000Y-35212015D03*
X44500000Y-32672015D03*
X44500000Y-30132015D03*
X44500000Y-27592015D03*
D12*
X34730000Y-26822015D03*
X37270000Y-26822015D03*
X34730000Y-29362015D03*
X37270000Y-29362015D03*
D13*
X39800000Y-44462015D03*
X41700000Y-44462015D03*
D14*
X31500000Y-33012015D03*
X31500000Y-34912015D03*
%TD*%
D10*
%TO.C,MX10*%
X68725000Y-73950000D03*
X80275000Y-71750000D03*
%TD*%
%TO.C,MX8*%
X68725000Y-39950000D03*
X80275000Y-37750000D03*
%TD*%
%TO.C,MX13*%
X86725000Y-56950000D03*
X98275000Y-54750000D03*
%TD*%
%TO.C,MX1*%
X32725000Y-56950000D03*
X44275000Y-54750000D03*
%TD*%
%TO.C,MX6*%
X50725000Y-82450000D03*
X62275000Y-80250000D03*
%TD*%
%TO.C,MX18*%
X104725000Y-73950000D03*
X116275000Y-71750000D03*
%TD*%
%TO.C,MX14*%
X86725000Y-73950000D03*
X98275000Y-71750000D03*
%TD*%
%TO.C,MX9*%
X68725000Y-56950000D03*
X80275000Y-54750000D03*
%TD*%
%TO.C,MX11*%
X68725000Y-90950000D03*
X80275000Y-88750000D03*
%TD*%
%TO.C,MX16*%
X104725000Y-39950000D03*
X116275000Y-37750000D03*
%TD*%
%TO.C,MX3*%
X32725000Y-90950000D03*
X44275000Y-88750000D03*
%TD*%
%TO.C,MX12*%
X86725000Y-39950000D03*
X98275000Y-37750000D03*
%TD*%
%TO.C,MX4*%
X50725000Y-48450000D03*
X62275000Y-46250000D03*
%TD*%
%TO.C,MX17*%
X104725000Y-56950000D03*
X116275000Y-54750000D03*
%TD*%
%TO.C,MX19*%
X104725000Y-90950000D03*
X116275000Y-88750000D03*
%TD*%
M02*
