M48
; DRILL file {KiCad 8.0.6} date 2025-02-20T09:41:03-0500
; FORMAT={-:-/ absolute / inch / decimal}
; #@! TF.CreationDate,2025-02-20T09:41:03-05:00
; #@! TF.GenerationSoftware,Kicad,Pcbnew,8.0.6
; #@! TF.FileFunction,Plated,1,2,PTH
FMAT,2
INCH
; #@! TA.AperFunction,Plated,PTH,ViaDrill
T1C0.0118
; #@! TA.AperFunction,Plated,PTH,ComponentDrill
T2C0.0295
; #@! TA.AperFunction,Plated,PTH,ComponentDrill
T3C0.0394
%
G90
G05
T1
X1.0039Y-1.437
X1.0039Y-1.5354
X1.0039Y-1.6339
X1.0827Y-1.7454
X1.5463Y-2.2421
X1.5463Y-2.9114
X1.5463Y-3.5807
X1.5551Y-1.1024
X1.5551Y-1.189
X1.5551Y-1.2362
X1.6181Y-1.0627
X1.6181Y-1.1627
X1.6181Y-1.2333
X1.6559Y-1.3376
X1.6732Y-1.6864
X1.6732Y-1.4236
X1.6732Y-1.4551
X1.6732Y-1.4961
X1.6732Y-1.5354
X1.6732Y-1.5748
X1.6732Y-1.6339
X1.7431Y-2.1555
X1.7431Y-2.8248
X1.7431Y-3.4941
X1.7913Y-3.2874
X1.8284Y-1.3349
X1.8307Y-1.437
X1.8543Y-2.7756
X1.9488Y-1.0433
X1.9488Y-1.2795
X2.0079Y-1.437
X2.1909Y-1.5059
X2.2549Y-1.9075
X2.2549Y-2.5768
X2.2549Y-3.2461
X2.4518Y-1.8209
X2.4518Y-2.4902
X2.4518Y-3.1594
X2.561Y-1.8051
X2.9636Y-1.5728
X2.9636Y-2.2421
X2.9636Y-2.9114
X2.9636Y-3.5807
X3.1467Y-1.4862
X3.1467Y-2.1555
X3.1467Y-2.8248
X3.1467Y-3.4941
X3.6722Y-1.5728
X3.6722Y-2.2421
X3.6722Y-2.9114
X3.6722Y-3.5807
X3.8553Y-1.4862
X3.8553Y-2.1555
X3.8553Y-2.8248
X3.8553Y-3.4941
X4.3809Y-1.5728
X4.3809Y-2.2421
X4.3809Y-2.9114
X4.3809Y-3.5807
X4.5669Y-1.4862
X4.5669Y-2.1555
X4.5778Y-2.8248
X4.5778Y-3.4941
T2
X2.0295Y-1.1811
X2.0295Y-1.2598
X2.1437Y-1.1811
X2.1437Y-1.2598
T3
X4.6063Y-2.3415
X4.6063Y-2.4415
X4.6063Y-2.5415
T3
G00X1.25Y-1.2997
M15
G01X1.2303Y-1.2997
M16
G05
G00X1.25Y-1.3745
M15
G01X1.2303Y-1.3745
M16
G05
G00X1.5846Y-1.2997
M15
G01X1.6043Y-1.2997
M16
G05
G00X1.5846Y-1.3745
M15
G01X1.6043Y-1.3745
M16
G05
M30
