M48
; DRILL file {KiCad 8.0.6} date 2025-02-20T09:41:03-0500
; FORMAT={-:-/ absolute / inch / decimal}
; #@! TF.CreationDate,2025-02-20T09:41:03-05:00
; #@! TF.GenerationSoftware,Kicad,Pcbnew,8.0.6
; #@! TF.FileFunction,NonPlated,1,2,NPTH
FMAT,2
INCH
; #@! TA.AperFunction,NonPlated,NPTH,ComponentDrill
T1C0.0390
; #@! TA.AperFunction,NonPlated,NPTH,ComponentDrill
T2C0.0670
; #@! TA.AperFunction,NonPlated,NPTH,ComponentDrill
T3C0.1181
; #@! TA.AperFunction,NonPlated,NPTH,ComponentDrill
T4C0.1350
%
G90
G05
T1
X1.2118Y-1.8425
X1.2118Y-2.5118
X1.2118Y-3.1811
X1.6228Y-1.8425
X1.6228Y-2.5118
X1.6228Y-3.1811
X1.9205Y-1.5079
X1.9205Y-2.1772
X1.9205Y-2.8465
X2.3315Y-1.5079
X2.3315Y-2.1772
X2.3315Y-2.8465
X2.6291Y-1.1732
X2.6291Y-1.8425
X2.6291Y-2.5118
X2.6291Y-3.1811
X3.0402Y-1.1732
X3.0402Y-1.8425
X3.0402Y-2.5118
X3.0402Y-3.1811
X3.3378Y-1.1732
X3.3378Y-1.8425
X3.3378Y-2.5118
X3.3378Y-3.1811
X3.7488Y-1.1732
X3.7488Y-1.8425
X3.7488Y-2.5118
X3.7488Y-3.1811
X4.0465Y-1.1732
X4.0465Y-1.8425
X4.0465Y-2.5118
X4.0465Y-3.1811
X4.4575Y-1.1732
X4.4575Y-1.8425
X4.4575Y-2.5118
X4.4575Y-3.1811
T2
X1.2008Y-2.0079
X1.2008Y-2.6772
X1.2008Y-3.3465
X1.6339Y-2.0079
X1.6339Y-2.6772
X1.6339Y-3.3465
X1.9094Y-1.6732
X1.9094Y-2.3425
X1.9094Y-3.0118
X2.3425Y-1.6732
X2.3425Y-2.3425
X2.3425Y-3.0118
X2.6181Y-1.3386
X2.6181Y-2.0079
X2.6181Y-2.6772
X2.6181Y-3.3465
X3.0512Y-1.3386
X3.0512Y-2.0079
X3.0512Y-2.6772
X3.0512Y-3.3465
X3.3268Y-1.3386
X3.3268Y-2.0079
X3.3268Y-2.6772
X3.3268Y-3.3465
X3.7598Y-1.3386
X3.7598Y-2.0079
X3.7598Y-2.6772
X3.7598Y-3.3465
X4.0354Y-1.3386
X4.0354Y-2.0079
X4.0354Y-2.6772
X4.0354Y-3.3465
X4.4685Y-1.3386
X4.4685Y-2.0079
X4.4685Y-2.6772
X4.4685Y-3.3465
T3
X1.2205Y-2.1555
X1.2205Y-2.8248
X1.2205Y-3.4941
X1.4173Y-2.2421
X1.4173Y-2.9114
X1.4173Y-3.5807
X1.6142Y-2.1555
X1.6142Y-2.8248
X1.6142Y-3.4941
X1.9291Y-1.8209
X1.9291Y-2.4902
X1.9291Y-3.1594
X2.126Y-1.9075
X2.126Y-2.5768
X2.126Y-3.2461
X2.3228Y-1.8209
X2.3228Y-2.4902
X2.3228Y-3.1594
X2.6378Y-1.4862
X2.6378Y-2.1555
X2.6378Y-2.8248
X2.6378Y-3.4941
X2.8346Y-1.5728
X2.8346Y-2.2421
X2.8346Y-2.9114
X2.8346Y-3.5807
X3.0315Y-1.4862
X3.0315Y-2.1555
X3.0315Y-2.8248
X3.0315Y-3.4941
X3.3465Y-1.4862
X3.3465Y-2.1555
X3.3465Y-2.8248
X3.3465Y-3.4941
X3.5433Y-1.5728
X3.5433Y-2.2421
X3.5433Y-2.9114
X3.5433Y-3.5807
X3.7402Y-1.4862
X3.7402Y-2.1555
X3.7402Y-2.8248
X3.7402Y-3.4941
X4.0551Y-1.4862
X4.0551Y-2.1555
X4.0551Y-2.8248
X4.0551Y-3.4941
X4.252Y-1.5728
X4.252Y-2.2421
X4.252Y-2.9114
X4.252Y-3.5807
X4.4488Y-1.4862
X4.4488Y-2.1555
X4.4488Y-2.8248
X4.4488Y-3.4941
T4
X1.4173Y-2.0079
X1.4173Y-2.6772
X1.4173Y-3.3465
X2.126Y-1.6732
X2.126Y-2.3425
X2.126Y-3.0118
X2.8346Y-1.3386
X2.8346Y-2.0079
X2.8346Y-2.6772
X2.8346Y-3.3465
X3.5433Y-1.3386
X3.5433Y-2.0079
X3.5433Y-2.6772
X3.5433Y-3.3465
X4.252Y-1.3386
X4.252Y-2.0079
X4.252Y-2.6772
X4.252Y-3.3465
M30
