%TF.GenerationSoftware,KiCad,Pcbnew,8.0.6*%
%TF.CreationDate,2025-02-20T09:41:10-05:00*%
%TF.ProjectId,PCB,5043422e-6b69-4636-9164-5f7063625858,rev?*%
%TF.SameCoordinates,Original*%
%TF.FileFunction,Paste,Bot*%
%TF.FilePolarity,Positive*%
%FSLAX46Y46*%
G04 Gerber Fmt 4.6, Leading zero omitted, Abs format (unit mm)*
G04 Created by KiCad (PCBNEW 8.0.6) date 2025-02-20 09:41:10*
%MOMM*%
%LPD*%
G01*
G04 APERTURE LIST*
G04 Aperture macros list*
%AMRoundRect*
0 Rectangle with rounded corners*
0 $1 Rounding radius*
0 $2 $3 $4 $5 $6 $7 $8 $9 X,Y pos of 4 corners*
0 Add a 4 corners polygon primitive as box body*
4,1,4,$2,$3,$4,$5,$6,$7,$8,$9,$2,$3,0*
0 Add four circle primitives for the rounded corners*
1,1,$1+$1,$2,$3*
1,1,$1+$1,$4,$5*
1,1,$1+$1,$6,$7*
1,1,$1+$1,$8,$9*
0 Add four rect primitives between the rounded corners*
20,1,$1+$1,$2,$3,$4,$5,0*
20,1,$1+$1,$4,$5,$6,$7,0*
20,1,$1+$1,$6,$7,$8,$9,0*
20,1,$1+$1,$8,$9,$2,$3,0*%
G04 Aperture macros list end*
%ADD10R,2.600000X2.600000*%
%ADD11RoundRect,0.225000X0.225000X0.375000X-0.225000X0.375000X-0.225000X-0.375000X0.225000X-0.375000X0*%
%ADD12R,3.000000X2.000000*%
%ADD13C,1.500000*%
%ADD14R,1.300000X2.300000*%
%ADD15RoundRect,0.250000X1.000000X0.650000X-1.000000X0.650000X-1.000000X-0.650000X1.000000X-0.650000X0*%
G04 APERTURE END LIST*
D10*
%TO.C,MX5*%
X57275000Y-65450000D03*
X45725000Y-63250000D03*
%TD*%
%TO.C,MX15*%
X93275000Y-90950000D03*
X81725000Y-88750000D03*
%TD*%
%TO.C,MX2*%
X39275000Y-73950000D03*
X27725000Y-71750000D03*
%TD*%
%TO.C,MX10*%
X75275000Y-73950000D03*
X63725000Y-71750000D03*
%TD*%
%TO.C,MX8*%
X75275000Y-39950000D03*
X63725000Y-37750000D03*
%TD*%
%TO.C,MX13*%
X93275000Y-56950000D03*
X81725000Y-54750000D03*
%TD*%
%TO.C,MX1*%
X39275000Y-56950000D03*
X27725000Y-54750000D03*
%TD*%
%TO.C,MX6*%
X57275000Y-82450000D03*
X45725000Y-80250000D03*
%TD*%
%TO.C,MX18*%
X111275000Y-73950000D03*
X99725000Y-71750000D03*
%TD*%
%TO.C,MX14*%
X93275000Y-73950000D03*
X81725000Y-71750000D03*
%TD*%
%TO.C,MX9*%
X75275000Y-56950000D03*
X63725000Y-54750000D03*
%TD*%
%TO.C,MX11*%
X75275000Y-90950000D03*
X63725000Y-88750000D03*
%TD*%
%TO.C,MX16*%
X111275000Y-39950000D03*
X99725000Y-37750000D03*
%TD*%
%TO.C,MX3*%
X39275000Y-90950000D03*
X27725000Y-88750000D03*
%TD*%
%TO.C,MX12*%
X93275000Y-39950000D03*
X81725000Y-37750000D03*
%TD*%
%TO.C,MX4*%
X57275000Y-48450000D03*
X45725000Y-46250000D03*
%TD*%
%TO.C,MX17*%
X111275000Y-56950000D03*
X99725000Y-54750000D03*
%TD*%
%TO.C,MX19*%
X111275000Y-90950000D03*
X99725000Y-88750000D03*
%TD*%
D11*
%TO.C,D11*%
X73650000Y-80750000D03*
X70350000Y-80750000D03*
%TD*%
%TO.C,D10*%
X73650000Y-63750000D03*
X70350000Y-63750000D03*
%TD*%
%TO.C,D2*%
X37650000Y-63750000D03*
X34350000Y-63750000D03*
%TD*%
%TO.C,D13*%
X91650000Y-46750000D03*
X88350000Y-46750000D03*
%TD*%
%TO.C,D19*%
X109650000Y-80750000D03*
X106350000Y-80750000D03*
%TD*%
D12*
%TO.C,U1*%
X44500000Y-27592015D03*
X44500000Y-30132015D03*
X44500000Y-32672015D03*
X44500000Y-35212015D03*
X44500000Y-37752015D03*
X44500000Y-40292015D03*
X44500000Y-42832015D03*
X27500000Y-42832015D03*
X27500000Y-40292015D03*
X27500000Y-37752015D03*
X27500000Y-35212015D03*
X27500000Y-32672015D03*
X27500000Y-30132015D03*
X27500000Y-27592015D03*
D13*
X37270000Y-26822015D03*
X34730000Y-26822015D03*
X37270000Y-29362015D03*
X34730000Y-29362015D03*
D14*
X32200000Y-44462015D03*
X30300000Y-44462015D03*
%TD*%
D11*
%TO.C,D16*%
X109650000Y-29750000D03*
X106350000Y-29750000D03*
%TD*%
%TO.C,D5*%
X55650000Y-55250000D03*
X52350000Y-55250000D03*
%TD*%
%TO.C,D12*%
X91650000Y-29750000D03*
X88350000Y-29750000D03*
%TD*%
%TO.C,D15*%
X91650000Y-80750000D03*
X88350000Y-80750000D03*
%TD*%
%TO.C,D14*%
X91650000Y-63750000D03*
X88350000Y-63750000D03*
%TD*%
%TO.C,D1*%
X37650000Y-46750000D03*
X34350000Y-46750000D03*
%TD*%
%TO.C,D8*%
X73650000Y-29750000D03*
X70350000Y-29750000D03*
%TD*%
%TO.C,D18*%
X109650000Y-63750000D03*
X106350000Y-63750000D03*
%TD*%
%TO.C,D6*%
X55650000Y-72250000D03*
X52350000Y-72250000D03*
%TD*%
%TO.C,D4*%
X55650000Y-38250000D03*
X52350000Y-38250000D03*
%TD*%
%TO.C,D3*%
X37650000Y-80750000D03*
X34350000Y-80750000D03*
%TD*%
D15*
%TO.C,D7*%
X55600000Y-25650000D03*
X51600000Y-25650000D03*
%TD*%
D11*
%TO.C,D9*%
X73650000Y-46750000D03*
X70350000Y-46750000D03*
%TD*%
%TO.C,D17*%
X109650000Y-46750000D03*
X106350000Y-46750000D03*
%TD*%
M02*
