%TF.GenerationSoftware,KiCad,Pcbnew,8.0.6*%
%TF.CreationDate,2025-02-12T16:48:57-05:00*%
%TF.ProjectId,PCB,5043422e-6b69-4636-9164-5f7063625858,rev?*%
%TF.SameCoordinates,Original*%
%TF.FileFunction,Soldermask,Bot*%
%TF.FilePolarity,Negative*%
%FSLAX46Y46*%
G04 Gerber Fmt 4.6, Leading zero omitted, Abs format (unit mm)*
G04 Created by KiCad (PCBNEW 8.0.6) date 2025-02-12 16:48:57*
%MOMM*%
%LPD*%
G01*
G04 APERTURE LIST*
G04 Aperture macros list*
%AMRoundRect*
0 Rectangle with rounded corners*
0 $1 Rounding radius*
0 $2 $3 $4 $5 $6 $7 $8 $9 X,Y pos of 4 corners*
0 Add a 4 corners polygon primitive as box body*
4,1,4,$2,$3,$4,$5,$6,$7,$8,$9,$2,$3,0*
0 Add four circle primitives for the rounded corners*
1,1,$1+$1,$2,$3*
1,1,$1+$1,$4,$5*
1,1,$1+$1,$6,$7*
1,1,$1+$1,$8,$9*
0 Add four rect primitives between the rounded corners*
20,1,$1+$1,$2,$3,$4,$5,0*
20,1,$1+$1,$4,$5,$6,$7,0*
20,1,$1+$1,$6,$7,$8,$9,0*
20,1,$1+$1,$8,$9,$2,$3,0*%
G04 Aperture macros list end*
%ADD10R,1.700000X1.700000*%
%ADD11O,1.700000X1.700000*%
%ADD12C,1.701800*%
%ADD13C,0.990600*%
%ADD14C,3.000000*%
%ADD15C,3.429000*%
%ADD16R,2.600000X2.600000*%
%ADD17RoundRect,0.250000X-0.625000X0.350000X-0.625000X-0.350000X0.625000X-0.350000X0.625000X0.350000X0*%
%ADD18O,1.750000X1.200000*%
%ADD19RoundRect,0.250000X0.625000X-0.350000X0.625000X0.350000X-0.625000X0.350000X-0.625000X-0.350000X0*%
%ADD20RoundRect,0.225000X0.225000X0.375000X-0.225000X0.375000X-0.225000X-0.375000X0.225000X-0.375000X0*%
%ADD21R,3.000000X2.000000*%
%ADD22C,1.500000*%
%ADD23R,1.300000X2.300000*%
%ADD24R,2.300000X1.300000*%
G04 APERTURE END LIST*
D10*
%TO.C,J3*%
X117000000Y-59475000D03*
D11*
X117000000Y-62015000D03*
X117000000Y-64555000D03*
%TD*%
D12*
%TO.C,MX5*%
X48500000Y-59500000D03*
D13*
X48780000Y-55300000D03*
D14*
X49000000Y-63250000D03*
D15*
X54000000Y-59500000D03*
D14*
X54000000Y-65450000D03*
X59000000Y-63250000D03*
D13*
X59220000Y-55300000D03*
D12*
X59500000Y-59500000D03*
D16*
X57275000Y-65450000D03*
X45725000Y-63250000D03*
%TD*%
D12*
%TO.C,MX15*%
X84500000Y-85000000D03*
D13*
X84780000Y-80800000D03*
D14*
X85000000Y-88750000D03*
D15*
X90000000Y-85000000D03*
D14*
X90000000Y-90950000D03*
X95000000Y-88750000D03*
D13*
X95220000Y-80800000D03*
D12*
X95500000Y-85000000D03*
D16*
X93275000Y-90950000D03*
X81725000Y-88750000D03*
%TD*%
D12*
%TO.C,MX2*%
X30500000Y-68000000D03*
D13*
X30780000Y-63800000D03*
D14*
X31000000Y-71750000D03*
D15*
X36000000Y-68000000D03*
D14*
X36000000Y-73950000D03*
X41000000Y-71750000D03*
D13*
X41220000Y-63800000D03*
D12*
X41500000Y-68000000D03*
D16*
X39275000Y-73950000D03*
X27725000Y-71750000D03*
%TD*%
D12*
%TO.C,MX10*%
X66500000Y-68000000D03*
D13*
X66780000Y-63800000D03*
D14*
X67000000Y-71750000D03*
D15*
X72000000Y-68000000D03*
D14*
X72000000Y-73950000D03*
X77000000Y-71750000D03*
D13*
X77220000Y-63800000D03*
D12*
X77500000Y-68000000D03*
D16*
X75275000Y-73950000D03*
X63725000Y-71750000D03*
%TD*%
D12*
%TO.C,MX8*%
X66500000Y-34000000D03*
D13*
X66780000Y-29800000D03*
D14*
X67000000Y-37750000D03*
D15*
X72000000Y-34000000D03*
D14*
X72000000Y-39950000D03*
X77000000Y-37750000D03*
D13*
X77220000Y-29800000D03*
D12*
X77500000Y-34000000D03*
D16*
X75275000Y-39950000D03*
X63725000Y-37750000D03*
%TD*%
D17*
%TO.C,J1*%
X54450000Y-30000000D03*
D18*
X54450000Y-32000000D03*
%TD*%
D12*
%TO.C,MX13*%
X84500000Y-51000000D03*
D13*
X84780000Y-46800000D03*
D14*
X85000000Y-54750000D03*
D15*
X90000000Y-51000000D03*
D14*
X90000000Y-56950000D03*
X95000000Y-54750000D03*
D13*
X95220000Y-46800000D03*
D12*
X95500000Y-51000000D03*
D16*
X93275000Y-56950000D03*
X81725000Y-54750000D03*
%TD*%
D12*
%TO.C,MX1*%
X30500000Y-51000000D03*
D13*
X30780000Y-46800000D03*
D14*
X31000000Y-54750000D03*
D15*
X36000000Y-51000000D03*
D14*
X36000000Y-56950000D03*
X41000000Y-54750000D03*
D13*
X41220000Y-46800000D03*
D12*
X41500000Y-51000000D03*
D16*
X39275000Y-56950000D03*
X27725000Y-54750000D03*
%TD*%
D12*
%TO.C,MX6*%
X48500000Y-76500000D03*
D13*
X48780000Y-72300000D03*
D14*
X49000000Y-80250000D03*
D15*
X54000000Y-76500000D03*
D14*
X54000000Y-82450000D03*
X59000000Y-80250000D03*
D13*
X59220000Y-72300000D03*
D12*
X59500000Y-76500000D03*
D16*
X57275000Y-82450000D03*
X45725000Y-80250000D03*
%TD*%
D12*
%TO.C,MX18*%
X102500000Y-68000000D03*
D13*
X102780000Y-63800000D03*
D14*
X103000000Y-71750000D03*
D15*
X108000000Y-68000000D03*
D14*
X108000000Y-73950000D03*
X113000000Y-71750000D03*
D13*
X113220000Y-63800000D03*
D12*
X113500000Y-68000000D03*
D16*
X111275000Y-73950000D03*
X99725000Y-71750000D03*
%TD*%
D12*
%TO.C,MX14*%
X84500000Y-68000000D03*
D13*
X84780000Y-63800000D03*
D14*
X85000000Y-71750000D03*
D15*
X90000000Y-68000000D03*
D14*
X90000000Y-73950000D03*
X95000000Y-71750000D03*
D13*
X95220000Y-63800000D03*
D12*
X95500000Y-68000000D03*
D16*
X93275000Y-73950000D03*
X81725000Y-71750000D03*
%TD*%
D12*
%TO.C,MX9*%
X66500000Y-51000000D03*
D13*
X66780000Y-46800000D03*
D14*
X67000000Y-54750000D03*
D15*
X72000000Y-51000000D03*
D14*
X72000000Y-56950000D03*
X77000000Y-54750000D03*
D13*
X77220000Y-46800000D03*
D12*
X77500000Y-51000000D03*
D16*
X75275000Y-56950000D03*
X63725000Y-54750000D03*
%TD*%
D12*
%TO.C,MX11*%
X66500000Y-85000000D03*
D13*
X66780000Y-80800000D03*
D14*
X67000000Y-88750000D03*
D15*
X72000000Y-85000000D03*
D14*
X72000000Y-90950000D03*
X77000000Y-88750000D03*
D13*
X77220000Y-80800000D03*
D12*
X77500000Y-85000000D03*
D16*
X75275000Y-90950000D03*
X63725000Y-88750000D03*
%TD*%
D12*
%TO.C,MX16*%
X102500000Y-34000000D03*
D13*
X102780000Y-29800000D03*
D14*
X103000000Y-37750000D03*
D15*
X108000000Y-34000000D03*
D14*
X108000000Y-39950000D03*
X113000000Y-37750000D03*
D13*
X113220000Y-29800000D03*
D12*
X113500000Y-34000000D03*
D16*
X111275000Y-39950000D03*
X99725000Y-37750000D03*
%TD*%
D12*
%TO.C,MX3*%
X30500000Y-85000000D03*
D13*
X30780000Y-80800000D03*
D14*
X31000000Y-88750000D03*
D15*
X36000000Y-85000000D03*
D14*
X36000000Y-90950000D03*
X41000000Y-88750000D03*
D13*
X41220000Y-80800000D03*
D12*
X41500000Y-85000000D03*
D16*
X39275000Y-90950000D03*
X27725000Y-88750000D03*
%TD*%
D12*
%TO.C,MX12*%
X84500000Y-34000000D03*
D13*
X84780000Y-29800000D03*
D14*
X85000000Y-37750000D03*
D15*
X90000000Y-34000000D03*
D14*
X90000000Y-39950000D03*
X95000000Y-37750000D03*
D13*
X95220000Y-29800000D03*
D12*
X95500000Y-34000000D03*
D16*
X93275000Y-39950000D03*
X81725000Y-37750000D03*
%TD*%
D12*
%TO.C,MX4*%
X48500000Y-42500000D03*
D13*
X48780000Y-38300000D03*
D14*
X49000000Y-46250000D03*
D15*
X54000000Y-42500000D03*
D14*
X54000000Y-48450000D03*
X59000000Y-46250000D03*
D13*
X59220000Y-38300000D03*
D12*
X59500000Y-42500000D03*
D16*
X57275000Y-48450000D03*
X45725000Y-46250000D03*
%TD*%
D12*
%TO.C,MX17*%
X102500000Y-51000000D03*
D13*
X102780000Y-46800000D03*
D14*
X103000000Y-54750000D03*
D15*
X108000000Y-51000000D03*
D14*
X108000000Y-56950000D03*
X113000000Y-54750000D03*
D13*
X113220000Y-46800000D03*
D12*
X113500000Y-51000000D03*
D16*
X111275000Y-56950000D03*
X99725000Y-54750000D03*
%TD*%
D12*
%TO.C,MX19*%
X102500000Y-85000000D03*
D13*
X102780000Y-80800000D03*
D14*
X103000000Y-88750000D03*
D15*
X108000000Y-85000000D03*
D14*
X108000000Y-90950000D03*
X113000000Y-88750000D03*
D13*
X113220000Y-80800000D03*
D12*
X113500000Y-85000000D03*
D16*
X111275000Y-90950000D03*
X99725000Y-88750000D03*
%TD*%
D19*
%TO.C,J2*%
X51550000Y-32000000D03*
D18*
X51550000Y-30000000D03*
%TD*%
D20*
%TO.C,D11*%
X73650000Y-80750000D03*
X70350000Y-80750000D03*
%TD*%
%TO.C,D10*%
X73650000Y-63750000D03*
X70350000Y-63750000D03*
%TD*%
%TO.C,D2*%
X37650000Y-63750000D03*
X34350000Y-63750000D03*
%TD*%
%TO.C,D13*%
X91650000Y-46750000D03*
X88350000Y-46750000D03*
%TD*%
%TO.C,D19*%
X109650000Y-80750000D03*
X106350000Y-80750000D03*
%TD*%
D21*
%TO.C,U1*%
X44500000Y-27592015D03*
X44500000Y-30132015D03*
X44500000Y-32672015D03*
X44500000Y-35212015D03*
X44500000Y-37752015D03*
X44500000Y-40292015D03*
X44500000Y-42832015D03*
X27500000Y-42832015D03*
X27500000Y-40292015D03*
X27500000Y-37752015D03*
X27500000Y-35212015D03*
X27500000Y-32672015D03*
X27500000Y-30132015D03*
X27500000Y-27592015D03*
D22*
X37270000Y-26822015D03*
X34730000Y-26822015D03*
X37270000Y-29362015D03*
X34730000Y-29362015D03*
D23*
X32200000Y-44462015D03*
X30300000Y-44462015D03*
D24*
X40500000Y-33012015D03*
X40500000Y-34912015D03*
%TD*%
D20*
%TO.C,D16*%
X109650000Y-29750000D03*
X106350000Y-29750000D03*
%TD*%
%TO.C,D5*%
X55650000Y-55250000D03*
X52350000Y-55250000D03*
%TD*%
%TO.C,D12*%
X91650000Y-29750000D03*
X88350000Y-29750000D03*
%TD*%
%TO.C,D15*%
X91650000Y-80750000D03*
X88350000Y-80750000D03*
%TD*%
%TO.C,D14*%
X91650000Y-63750000D03*
X88350000Y-63750000D03*
%TD*%
%TO.C,D1*%
X37650000Y-46750000D03*
X34350000Y-46750000D03*
%TD*%
%TO.C,D8*%
X73650000Y-29750000D03*
X70350000Y-29750000D03*
%TD*%
%TO.C,D18*%
X109650000Y-63750000D03*
X106350000Y-63750000D03*
%TD*%
%TO.C,D6*%
X55650000Y-72250000D03*
X52350000Y-72250000D03*
%TD*%
%TO.C,D4*%
X55650000Y-38250000D03*
X52350000Y-38250000D03*
%TD*%
%TO.C,D3*%
X37650000Y-80750000D03*
X34350000Y-80750000D03*
%TD*%
%TO.C,D9*%
X73650000Y-46750000D03*
X70350000Y-46750000D03*
%TD*%
%TO.C,D17*%
X109650000Y-46750000D03*
X106350000Y-46750000D03*
%TD*%
M02*
