%TF.GenerationSoftware,KiCad,Pcbnew,8.0.6*%
%TF.CreationDate,2025-02-12T15:56:16-05:00*%
%TF.ProjectId,PCB,5043422e-6b69-4636-9164-5f7063625858,rev?*%
%TF.SameCoordinates,Original*%
%TF.FileFunction,Legend,Top*%
%TF.FilePolarity,Positive*%
%FSLAX46Y46*%
G04 Gerber Fmt 4.6, Leading zero omitted, Abs format (unit mm)*
G04 Created by KiCad (PCBNEW 8.0.6) date 2025-02-12 15:56:16*
%MOMM*%
%LPD*%
G01*
G04 APERTURE LIST*
%ADD10C,0.150000*%
%ADD11C,0.120000*%
%ADD12C,0.127000*%
%ADD13C,0.254000*%
%ADD14C,0.025400*%
G04 APERTURE END LIST*
D10*
X47670112Y-87016177D02*
X47812969Y-87063796D01*
X47812969Y-87063796D02*
X47860588Y-87111415D01*
X47860588Y-87111415D02*
X47908207Y-87206653D01*
X47908207Y-87206653D02*
X47908207Y-87349510D01*
X47908207Y-87349510D02*
X47860588Y-87444748D01*
X47860588Y-87444748D02*
X47812969Y-87492368D01*
X47812969Y-87492368D02*
X47717731Y-87539987D01*
X47717731Y-87539987D02*
X47336779Y-87539987D01*
X47336779Y-87539987D02*
X47336779Y-86539987D01*
X47336779Y-86539987D02*
X47670112Y-86539987D01*
X47670112Y-86539987D02*
X47765350Y-86587606D01*
X47765350Y-86587606D02*
X47812969Y-86635225D01*
X47812969Y-86635225D02*
X47860588Y-86730463D01*
X47860588Y-86730463D02*
X47860588Y-86825701D01*
X47860588Y-86825701D02*
X47812969Y-86920939D01*
X47812969Y-86920939D02*
X47765350Y-86968558D01*
X47765350Y-86968558D02*
X47670112Y-87016177D01*
X47670112Y-87016177D02*
X47336779Y-87016177D01*
X48479636Y-87539987D02*
X48384398Y-87492368D01*
X48384398Y-87492368D02*
X48336779Y-87444748D01*
X48336779Y-87444748D02*
X48289160Y-87349510D01*
X48289160Y-87349510D02*
X48289160Y-87063796D01*
X48289160Y-87063796D02*
X48336779Y-86968558D01*
X48336779Y-86968558D02*
X48384398Y-86920939D01*
X48384398Y-86920939D02*
X48479636Y-86873320D01*
X48479636Y-86873320D02*
X48622493Y-86873320D01*
X48622493Y-86873320D02*
X48717731Y-86920939D01*
X48717731Y-86920939D02*
X48765350Y-86968558D01*
X48765350Y-86968558D02*
X48812969Y-87063796D01*
X48812969Y-87063796D02*
X48812969Y-87349510D01*
X48812969Y-87349510D02*
X48765350Y-87444748D01*
X48765350Y-87444748D02*
X48717731Y-87492368D01*
X48717731Y-87492368D02*
X48622493Y-87539987D01*
X48622493Y-87539987D02*
X48479636Y-87539987D01*
X49670112Y-87539987D02*
X49670112Y-87016177D01*
X49670112Y-87016177D02*
X49622493Y-86920939D01*
X49622493Y-86920939D02*
X49527255Y-86873320D01*
X49527255Y-86873320D02*
X49336779Y-86873320D01*
X49336779Y-86873320D02*
X49241541Y-86920939D01*
X49670112Y-87492368D02*
X49574874Y-87539987D01*
X49574874Y-87539987D02*
X49336779Y-87539987D01*
X49336779Y-87539987D02*
X49241541Y-87492368D01*
X49241541Y-87492368D02*
X49193922Y-87397129D01*
X49193922Y-87397129D02*
X49193922Y-87301891D01*
X49193922Y-87301891D02*
X49241541Y-87206653D01*
X49241541Y-87206653D02*
X49336779Y-87159034D01*
X49336779Y-87159034D02*
X49574874Y-87159034D01*
X49574874Y-87159034D02*
X49670112Y-87111415D01*
X50146303Y-87539987D02*
X50146303Y-86873320D01*
X50146303Y-87063796D02*
X50193922Y-86968558D01*
X50193922Y-86968558D02*
X50241541Y-86920939D01*
X50241541Y-86920939D02*
X50336779Y-86873320D01*
X50336779Y-86873320D02*
X50432017Y-86873320D01*
X51193922Y-87539987D02*
X51193922Y-86539987D01*
X51193922Y-87492368D02*
X51098684Y-87539987D01*
X51098684Y-87539987D02*
X50908208Y-87539987D01*
X50908208Y-87539987D02*
X50812970Y-87492368D01*
X50812970Y-87492368D02*
X50765351Y-87444748D01*
X50765351Y-87444748D02*
X50717732Y-87349510D01*
X50717732Y-87349510D02*
X50717732Y-87063796D01*
X50717732Y-87063796D02*
X50765351Y-86968558D01*
X50765351Y-86968558D02*
X50812970Y-86920939D01*
X50812970Y-86920939D02*
X50908208Y-86873320D01*
X50908208Y-86873320D02*
X51098684Y-86873320D01*
X51098684Y-86873320D02*
X51193922Y-86920939D01*
X51670113Y-87444748D02*
X51717732Y-87492368D01*
X51717732Y-87492368D02*
X51670113Y-87539987D01*
X51670113Y-87539987D02*
X51622494Y-87492368D01*
X51622494Y-87492368D02*
X51670113Y-87444748D01*
X51670113Y-87444748D02*
X51670113Y-87539987D01*
X51670113Y-86920939D02*
X51717732Y-86968558D01*
X51717732Y-86968558D02*
X51670113Y-87016177D01*
X51670113Y-87016177D02*
X51622494Y-86968558D01*
X51622494Y-86968558D02*
X51670113Y-86920939D01*
X51670113Y-86920939D02*
X51670113Y-87016177D01*
X52908208Y-87539987D02*
X52908208Y-86539987D01*
X52908208Y-86539987D02*
X53289160Y-86539987D01*
X53289160Y-86539987D02*
X53384398Y-86587606D01*
X53384398Y-86587606D02*
X53432017Y-86635225D01*
X53432017Y-86635225D02*
X53479636Y-86730463D01*
X53479636Y-86730463D02*
X53479636Y-86873320D01*
X53479636Y-86873320D02*
X53432017Y-86968558D01*
X53432017Y-86968558D02*
X53384398Y-87016177D01*
X53384398Y-87016177D02*
X53289160Y-87063796D01*
X53289160Y-87063796D02*
X52908208Y-87063796D01*
X53908208Y-87539987D02*
X53908208Y-86873320D01*
X53908208Y-86539987D02*
X53860589Y-86587606D01*
X53860589Y-86587606D02*
X53908208Y-86635225D01*
X53908208Y-86635225D02*
X53955827Y-86587606D01*
X53955827Y-86587606D02*
X53908208Y-86539987D01*
X53908208Y-86539987D02*
X53908208Y-86635225D01*
X54812969Y-87492368D02*
X54717731Y-87539987D01*
X54717731Y-87539987D02*
X54527255Y-87539987D01*
X54527255Y-87539987D02*
X54432017Y-87492368D01*
X54432017Y-87492368D02*
X54384398Y-87444748D01*
X54384398Y-87444748D02*
X54336779Y-87349510D01*
X54336779Y-87349510D02*
X54336779Y-87063796D01*
X54336779Y-87063796D02*
X54384398Y-86968558D01*
X54384398Y-86968558D02*
X54432017Y-86920939D01*
X54432017Y-86920939D02*
X54527255Y-86873320D01*
X54527255Y-86873320D02*
X54717731Y-86873320D01*
X54717731Y-86873320D02*
X54812969Y-86920939D01*
X55241541Y-87539987D02*
X55241541Y-86539987D01*
X55336779Y-87159034D02*
X55622493Y-87539987D01*
X55622493Y-86873320D02*
X55241541Y-87254272D01*
X56051065Y-87539987D02*
X56051065Y-86539987D01*
X56051065Y-86539987D02*
X56432017Y-86539987D01*
X56432017Y-86539987D02*
X56527255Y-86587606D01*
X56527255Y-86587606D02*
X56574874Y-86635225D01*
X56574874Y-86635225D02*
X56622493Y-86730463D01*
X56622493Y-86730463D02*
X56622493Y-86873320D01*
X56622493Y-86873320D02*
X56574874Y-86968558D01*
X56574874Y-86968558D02*
X56527255Y-87016177D01*
X56527255Y-87016177D02*
X56432017Y-87063796D01*
X56432017Y-87063796D02*
X56051065Y-87063796D01*
X57193922Y-87539987D02*
X57098684Y-87492368D01*
X57098684Y-87492368D02*
X57051065Y-87444748D01*
X57051065Y-87444748D02*
X57003446Y-87349510D01*
X57003446Y-87349510D02*
X57003446Y-87063796D01*
X57003446Y-87063796D02*
X57051065Y-86968558D01*
X57051065Y-86968558D02*
X57098684Y-86920939D01*
X57098684Y-86920939D02*
X57193922Y-86873320D01*
X57193922Y-86873320D02*
X57336779Y-86873320D01*
X57336779Y-86873320D02*
X57432017Y-86920939D01*
X57432017Y-86920939D02*
X57479636Y-86968558D01*
X57479636Y-86968558D02*
X57527255Y-87063796D01*
X57527255Y-87063796D02*
X57527255Y-87349510D01*
X57527255Y-87349510D02*
X57479636Y-87444748D01*
X57479636Y-87444748D02*
X57432017Y-87492368D01*
X57432017Y-87492368D02*
X57336779Y-87539987D01*
X57336779Y-87539987D02*
X57193922Y-87539987D01*
X58384398Y-87492368D02*
X58289160Y-87539987D01*
X58289160Y-87539987D02*
X58098684Y-87539987D01*
X58098684Y-87539987D02*
X58003446Y-87492368D01*
X58003446Y-87492368D02*
X57955827Y-87444748D01*
X57955827Y-87444748D02*
X57908208Y-87349510D01*
X57908208Y-87349510D02*
X57908208Y-87063796D01*
X57908208Y-87063796D02*
X57955827Y-86968558D01*
X57955827Y-86968558D02*
X58003446Y-86920939D01*
X58003446Y-86920939D02*
X58098684Y-86873320D01*
X58098684Y-86873320D02*
X58289160Y-86873320D01*
X58289160Y-86873320D02*
X58384398Y-86920939D01*
X58812970Y-87539987D02*
X58812970Y-86539987D01*
X58908208Y-87159034D02*
X59193922Y-87539987D01*
X59193922Y-86873320D02*
X58812970Y-87254272D01*
X60003446Y-87492368D02*
X59908208Y-87539987D01*
X59908208Y-87539987D02*
X59717732Y-87539987D01*
X59717732Y-87539987D02*
X59622494Y-87492368D01*
X59622494Y-87492368D02*
X59574875Y-87397129D01*
X59574875Y-87397129D02*
X59574875Y-87016177D01*
X59574875Y-87016177D02*
X59622494Y-86920939D01*
X59622494Y-86920939D02*
X59717732Y-86873320D01*
X59717732Y-86873320D02*
X59908208Y-86873320D01*
X59908208Y-86873320D02*
X60003446Y-86920939D01*
X60003446Y-86920939D02*
X60051065Y-87016177D01*
X60051065Y-87016177D02*
X60051065Y-87111415D01*
X60051065Y-87111415D02*
X59574875Y-87206653D01*
X60336780Y-86873320D02*
X60717732Y-86873320D01*
X60479637Y-86539987D02*
X60479637Y-87397129D01*
X60479637Y-87397129D02*
X60527256Y-87492368D01*
X60527256Y-87492368D02*
X60622494Y-87539987D01*
X60622494Y-87539987D02*
X60717732Y-87539987D01*
X47193922Y-88149931D02*
X47527255Y-89149931D01*
X47527255Y-89149931D02*
X47860588Y-88149931D01*
X48574874Y-89102312D02*
X48479636Y-89149931D01*
X48479636Y-89149931D02*
X48289160Y-89149931D01*
X48289160Y-89149931D02*
X48193922Y-89102312D01*
X48193922Y-89102312D02*
X48146303Y-89007073D01*
X48146303Y-89007073D02*
X48146303Y-88626121D01*
X48146303Y-88626121D02*
X48193922Y-88530883D01*
X48193922Y-88530883D02*
X48289160Y-88483264D01*
X48289160Y-88483264D02*
X48479636Y-88483264D01*
X48479636Y-88483264D02*
X48574874Y-88530883D01*
X48574874Y-88530883D02*
X48622493Y-88626121D01*
X48622493Y-88626121D02*
X48622493Y-88721359D01*
X48622493Y-88721359D02*
X48146303Y-88816597D01*
X49051065Y-89149931D02*
X49051065Y-88483264D01*
X49051065Y-88673740D02*
X49098684Y-88578502D01*
X49098684Y-88578502D02*
X49146303Y-88530883D01*
X49146303Y-88530883D02*
X49241541Y-88483264D01*
X49241541Y-88483264D02*
X49336779Y-88483264D01*
X49622494Y-89102312D02*
X49717732Y-89149931D01*
X49717732Y-89149931D02*
X49908208Y-89149931D01*
X49908208Y-89149931D02*
X50003446Y-89102312D01*
X50003446Y-89102312D02*
X50051065Y-89007073D01*
X50051065Y-89007073D02*
X50051065Y-88959454D01*
X50051065Y-88959454D02*
X50003446Y-88864216D01*
X50003446Y-88864216D02*
X49908208Y-88816597D01*
X49908208Y-88816597D02*
X49765351Y-88816597D01*
X49765351Y-88816597D02*
X49670113Y-88768978D01*
X49670113Y-88768978D02*
X49622494Y-88673740D01*
X49622494Y-88673740D02*
X49622494Y-88626121D01*
X49622494Y-88626121D02*
X49670113Y-88530883D01*
X49670113Y-88530883D02*
X49765351Y-88483264D01*
X49765351Y-88483264D02*
X49908208Y-88483264D01*
X49908208Y-88483264D02*
X50003446Y-88530883D01*
X50479637Y-89149931D02*
X50479637Y-88483264D01*
X50479637Y-88149931D02*
X50432018Y-88197550D01*
X50432018Y-88197550D02*
X50479637Y-88245169D01*
X50479637Y-88245169D02*
X50527256Y-88197550D01*
X50527256Y-88197550D02*
X50479637Y-88149931D01*
X50479637Y-88149931D02*
X50479637Y-88245169D01*
X51098684Y-89149931D02*
X51003446Y-89102312D01*
X51003446Y-89102312D02*
X50955827Y-89054692D01*
X50955827Y-89054692D02*
X50908208Y-88959454D01*
X50908208Y-88959454D02*
X50908208Y-88673740D01*
X50908208Y-88673740D02*
X50955827Y-88578502D01*
X50955827Y-88578502D02*
X51003446Y-88530883D01*
X51003446Y-88530883D02*
X51098684Y-88483264D01*
X51098684Y-88483264D02*
X51241541Y-88483264D01*
X51241541Y-88483264D02*
X51336779Y-88530883D01*
X51336779Y-88530883D02*
X51384398Y-88578502D01*
X51384398Y-88578502D02*
X51432017Y-88673740D01*
X51432017Y-88673740D02*
X51432017Y-88959454D01*
X51432017Y-88959454D02*
X51384398Y-89054692D01*
X51384398Y-89054692D02*
X51336779Y-89102312D01*
X51336779Y-89102312D02*
X51241541Y-89149931D01*
X51241541Y-89149931D02*
X51098684Y-89149931D01*
X51860589Y-88483264D02*
X51860589Y-89149931D01*
X51860589Y-88578502D02*
X51908208Y-88530883D01*
X51908208Y-88530883D02*
X52003446Y-88483264D01*
X52003446Y-88483264D02*
X52146303Y-88483264D01*
X52146303Y-88483264D02*
X52241541Y-88530883D01*
X52241541Y-88530883D02*
X52289160Y-88626121D01*
X52289160Y-88626121D02*
X52289160Y-89149931D01*
X52765351Y-89054692D02*
X52812970Y-89102312D01*
X52812970Y-89102312D02*
X52765351Y-89149931D01*
X52765351Y-89149931D02*
X52717732Y-89102312D01*
X52717732Y-89102312D02*
X52765351Y-89054692D01*
X52765351Y-89054692D02*
X52765351Y-89149931D01*
X52765351Y-88530883D02*
X52812970Y-88578502D01*
X52812970Y-88578502D02*
X52765351Y-88626121D01*
X52765351Y-88626121D02*
X52717732Y-88578502D01*
X52717732Y-88578502D02*
X52765351Y-88530883D01*
X52765351Y-88530883D02*
X52765351Y-88626121D01*
X54193922Y-88149931D02*
X54289160Y-88149931D01*
X54289160Y-88149931D02*
X54384398Y-88197550D01*
X54384398Y-88197550D02*
X54432017Y-88245169D01*
X54432017Y-88245169D02*
X54479636Y-88340407D01*
X54479636Y-88340407D02*
X54527255Y-88530883D01*
X54527255Y-88530883D02*
X54527255Y-88768978D01*
X54527255Y-88768978D02*
X54479636Y-88959454D01*
X54479636Y-88959454D02*
X54432017Y-89054692D01*
X54432017Y-89054692D02*
X54384398Y-89102312D01*
X54384398Y-89102312D02*
X54289160Y-89149931D01*
X54289160Y-89149931D02*
X54193922Y-89149931D01*
X54193922Y-89149931D02*
X54098684Y-89102312D01*
X54098684Y-89102312D02*
X54051065Y-89054692D01*
X54051065Y-89054692D02*
X54003446Y-88959454D01*
X54003446Y-88959454D02*
X53955827Y-88768978D01*
X53955827Y-88768978D02*
X53955827Y-88530883D01*
X53955827Y-88530883D02*
X54003446Y-88340407D01*
X54003446Y-88340407D02*
X54051065Y-88245169D01*
X54051065Y-88245169D02*
X54098684Y-88197550D01*
X54098684Y-88197550D02*
X54193922Y-88149931D01*
X54955827Y-89054692D02*
X55003446Y-89102312D01*
X55003446Y-89102312D02*
X54955827Y-89149931D01*
X54955827Y-89149931D02*
X54908208Y-89102312D01*
X54908208Y-89102312D02*
X54955827Y-89054692D01*
X54955827Y-89054692D02*
X54955827Y-89149931D01*
X55955826Y-89149931D02*
X55384398Y-89149931D01*
X55670112Y-89149931D02*
X55670112Y-88149931D01*
X55670112Y-88149931D02*
X55574874Y-88292788D01*
X55574874Y-88292788D02*
X55479636Y-88388026D01*
X55479636Y-88388026D02*
X55384398Y-88435645D01*
X47336779Y-90759875D02*
X47336779Y-89759875D01*
X47336779Y-89759875D02*
X47574874Y-89759875D01*
X47574874Y-89759875D02*
X47717731Y-89807494D01*
X47717731Y-89807494D02*
X47812969Y-89902732D01*
X47812969Y-89902732D02*
X47860588Y-89997970D01*
X47860588Y-89997970D02*
X47908207Y-90188446D01*
X47908207Y-90188446D02*
X47908207Y-90331303D01*
X47908207Y-90331303D02*
X47860588Y-90521779D01*
X47860588Y-90521779D02*
X47812969Y-90617017D01*
X47812969Y-90617017D02*
X47717731Y-90712256D01*
X47717731Y-90712256D02*
X47574874Y-90759875D01*
X47574874Y-90759875D02*
X47336779Y-90759875D01*
X48717731Y-90712256D02*
X48622493Y-90759875D01*
X48622493Y-90759875D02*
X48432017Y-90759875D01*
X48432017Y-90759875D02*
X48336779Y-90712256D01*
X48336779Y-90712256D02*
X48289160Y-90617017D01*
X48289160Y-90617017D02*
X48289160Y-90236065D01*
X48289160Y-90236065D02*
X48336779Y-90140827D01*
X48336779Y-90140827D02*
X48432017Y-90093208D01*
X48432017Y-90093208D02*
X48622493Y-90093208D01*
X48622493Y-90093208D02*
X48717731Y-90140827D01*
X48717731Y-90140827D02*
X48765350Y-90236065D01*
X48765350Y-90236065D02*
X48765350Y-90331303D01*
X48765350Y-90331303D02*
X48289160Y-90426541D01*
X49098684Y-90093208D02*
X49336779Y-90759875D01*
X49336779Y-90759875D02*
X49574874Y-90093208D01*
X50336779Y-90712256D02*
X50241541Y-90759875D01*
X50241541Y-90759875D02*
X50051065Y-90759875D01*
X50051065Y-90759875D02*
X49955827Y-90712256D01*
X49955827Y-90712256D02*
X49908208Y-90617017D01*
X49908208Y-90617017D02*
X49908208Y-90236065D01*
X49908208Y-90236065D02*
X49955827Y-90140827D01*
X49955827Y-90140827D02*
X50051065Y-90093208D01*
X50051065Y-90093208D02*
X50241541Y-90093208D01*
X50241541Y-90093208D02*
X50336779Y-90140827D01*
X50336779Y-90140827D02*
X50384398Y-90236065D01*
X50384398Y-90236065D02*
X50384398Y-90331303D01*
X50384398Y-90331303D02*
X49908208Y-90426541D01*
X50955827Y-90759875D02*
X50860589Y-90712256D01*
X50860589Y-90712256D02*
X50812970Y-90617017D01*
X50812970Y-90617017D02*
X50812970Y-89759875D01*
X51479637Y-90759875D02*
X51384399Y-90712256D01*
X51384399Y-90712256D02*
X51336780Y-90664636D01*
X51336780Y-90664636D02*
X51289161Y-90569398D01*
X51289161Y-90569398D02*
X51289161Y-90283684D01*
X51289161Y-90283684D02*
X51336780Y-90188446D01*
X51336780Y-90188446D02*
X51384399Y-90140827D01*
X51384399Y-90140827D02*
X51479637Y-90093208D01*
X51479637Y-90093208D02*
X51622494Y-90093208D01*
X51622494Y-90093208D02*
X51717732Y-90140827D01*
X51717732Y-90140827D02*
X51765351Y-90188446D01*
X51765351Y-90188446D02*
X51812970Y-90283684D01*
X51812970Y-90283684D02*
X51812970Y-90569398D01*
X51812970Y-90569398D02*
X51765351Y-90664636D01*
X51765351Y-90664636D02*
X51717732Y-90712256D01*
X51717732Y-90712256D02*
X51622494Y-90759875D01*
X51622494Y-90759875D02*
X51479637Y-90759875D01*
X52241542Y-90093208D02*
X52241542Y-91093208D01*
X52241542Y-90140827D02*
X52336780Y-90093208D01*
X52336780Y-90093208D02*
X52527256Y-90093208D01*
X52527256Y-90093208D02*
X52622494Y-90140827D01*
X52622494Y-90140827D02*
X52670113Y-90188446D01*
X52670113Y-90188446D02*
X52717732Y-90283684D01*
X52717732Y-90283684D02*
X52717732Y-90569398D01*
X52717732Y-90569398D02*
X52670113Y-90664636D01*
X52670113Y-90664636D02*
X52622494Y-90712256D01*
X52622494Y-90712256D02*
X52527256Y-90759875D01*
X52527256Y-90759875D02*
X52336780Y-90759875D01*
X52336780Y-90759875D02*
X52241542Y-90712256D01*
X53527256Y-90712256D02*
X53432018Y-90759875D01*
X53432018Y-90759875D02*
X53241542Y-90759875D01*
X53241542Y-90759875D02*
X53146304Y-90712256D01*
X53146304Y-90712256D02*
X53098685Y-90617017D01*
X53098685Y-90617017D02*
X53098685Y-90236065D01*
X53098685Y-90236065D02*
X53146304Y-90140827D01*
X53146304Y-90140827D02*
X53241542Y-90093208D01*
X53241542Y-90093208D02*
X53432018Y-90093208D01*
X53432018Y-90093208D02*
X53527256Y-90140827D01*
X53527256Y-90140827D02*
X53574875Y-90236065D01*
X53574875Y-90236065D02*
X53574875Y-90331303D01*
X53574875Y-90331303D02*
X53098685Y-90426541D01*
X54003447Y-90759875D02*
X54003447Y-90093208D01*
X54003447Y-90283684D02*
X54051066Y-90188446D01*
X54051066Y-90188446D02*
X54098685Y-90140827D01*
X54098685Y-90140827D02*
X54193923Y-90093208D01*
X54193923Y-90093208D02*
X54289161Y-90093208D01*
X54622495Y-90664636D02*
X54670114Y-90712256D01*
X54670114Y-90712256D02*
X54622495Y-90759875D01*
X54622495Y-90759875D02*
X54574876Y-90712256D01*
X54574876Y-90712256D02*
X54622495Y-90664636D01*
X54622495Y-90664636D02*
X54622495Y-90759875D01*
X54622495Y-90140827D02*
X54670114Y-90188446D01*
X54670114Y-90188446D02*
X54622495Y-90236065D01*
X54622495Y-90236065D02*
X54574876Y-90188446D01*
X54574876Y-90188446D02*
X54622495Y-90140827D01*
X54622495Y-90140827D02*
X54622495Y-90236065D01*
X55860590Y-90759875D02*
X55860590Y-89759875D01*
X55860590Y-89759875D02*
X56241542Y-89759875D01*
X56241542Y-89759875D02*
X56336780Y-89807494D01*
X56336780Y-89807494D02*
X56384399Y-89855113D01*
X56384399Y-89855113D02*
X56432018Y-89950351D01*
X56432018Y-89950351D02*
X56432018Y-90093208D01*
X56432018Y-90093208D02*
X56384399Y-90188446D01*
X56384399Y-90188446D02*
X56336780Y-90236065D01*
X56336780Y-90236065D02*
X56241542Y-90283684D01*
X56241542Y-90283684D02*
X55860590Y-90283684D01*
X57289161Y-90759875D02*
X57289161Y-90236065D01*
X57289161Y-90236065D02*
X57241542Y-90140827D01*
X57241542Y-90140827D02*
X57146304Y-90093208D01*
X57146304Y-90093208D02*
X56955828Y-90093208D01*
X56955828Y-90093208D02*
X56860590Y-90140827D01*
X57289161Y-90712256D02*
X57193923Y-90759875D01*
X57193923Y-90759875D02*
X56955828Y-90759875D01*
X56955828Y-90759875D02*
X56860590Y-90712256D01*
X56860590Y-90712256D02*
X56812971Y-90617017D01*
X56812971Y-90617017D02*
X56812971Y-90521779D01*
X56812971Y-90521779D02*
X56860590Y-90426541D01*
X56860590Y-90426541D02*
X56955828Y-90378922D01*
X56955828Y-90378922D02*
X57193923Y-90378922D01*
X57193923Y-90378922D02*
X57289161Y-90331303D01*
X57765352Y-90759875D02*
X57765352Y-90093208D01*
X57765352Y-90283684D02*
X57812971Y-90188446D01*
X57812971Y-90188446D02*
X57860590Y-90140827D01*
X57860590Y-90140827D02*
X57955828Y-90093208D01*
X57955828Y-90093208D02*
X58051066Y-90093208D01*
X58384400Y-90759875D02*
X58384400Y-89759875D01*
X58479638Y-90378922D02*
X58765352Y-90759875D01*
X58765352Y-90093208D02*
X58384400Y-90474160D01*
X59146305Y-90712256D02*
X59241543Y-90759875D01*
X59241543Y-90759875D02*
X59432019Y-90759875D01*
X59432019Y-90759875D02*
X59527257Y-90712256D01*
X59527257Y-90712256D02*
X59574876Y-90617017D01*
X59574876Y-90617017D02*
X59574876Y-90569398D01*
X59574876Y-90569398D02*
X59527257Y-90474160D01*
X59527257Y-90474160D02*
X59432019Y-90426541D01*
X59432019Y-90426541D02*
X59289162Y-90426541D01*
X59289162Y-90426541D02*
X59193924Y-90378922D01*
X59193924Y-90378922D02*
X59146305Y-90283684D01*
X59146305Y-90283684D02*
X59146305Y-90236065D01*
X59146305Y-90236065D02*
X59193924Y-90140827D01*
X59193924Y-90140827D02*
X59289162Y-90093208D01*
X59289162Y-90093208D02*
X59432019Y-90093208D01*
X59432019Y-90093208D02*
X59527257Y-90140827D01*
X47336779Y-92369819D02*
X47336779Y-91369819D01*
X47336779Y-91369819D02*
X47574874Y-91369819D01*
X47574874Y-91369819D02*
X47717731Y-91417438D01*
X47717731Y-91417438D02*
X47812969Y-91512676D01*
X47812969Y-91512676D02*
X47860588Y-91607914D01*
X47860588Y-91607914D02*
X47908207Y-91798390D01*
X47908207Y-91798390D02*
X47908207Y-91941247D01*
X47908207Y-91941247D02*
X47860588Y-92131723D01*
X47860588Y-92131723D02*
X47812969Y-92226961D01*
X47812969Y-92226961D02*
X47717731Y-92322200D01*
X47717731Y-92322200D02*
X47574874Y-92369819D01*
X47574874Y-92369819D02*
X47336779Y-92369819D01*
X48765350Y-92369819D02*
X48765350Y-91846009D01*
X48765350Y-91846009D02*
X48717731Y-91750771D01*
X48717731Y-91750771D02*
X48622493Y-91703152D01*
X48622493Y-91703152D02*
X48432017Y-91703152D01*
X48432017Y-91703152D02*
X48336779Y-91750771D01*
X48765350Y-92322200D02*
X48670112Y-92369819D01*
X48670112Y-92369819D02*
X48432017Y-92369819D01*
X48432017Y-92369819D02*
X48336779Y-92322200D01*
X48336779Y-92322200D02*
X48289160Y-92226961D01*
X48289160Y-92226961D02*
X48289160Y-92131723D01*
X48289160Y-92131723D02*
X48336779Y-92036485D01*
X48336779Y-92036485D02*
X48432017Y-91988866D01*
X48432017Y-91988866D02*
X48670112Y-91988866D01*
X48670112Y-91988866D02*
X48765350Y-91941247D01*
X49098684Y-91703152D02*
X49479636Y-91703152D01*
X49241541Y-91369819D02*
X49241541Y-92226961D01*
X49241541Y-92226961D02*
X49289160Y-92322200D01*
X49289160Y-92322200D02*
X49384398Y-92369819D01*
X49384398Y-92369819D02*
X49479636Y-92369819D01*
X50193922Y-92322200D02*
X50098684Y-92369819D01*
X50098684Y-92369819D02*
X49908208Y-92369819D01*
X49908208Y-92369819D02*
X49812970Y-92322200D01*
X49812970Y-92322200D02*
X49765351Y-92226961D01*
X49765351Y-92226961D02*
X49765351Y-91846009D01*
X49765351Y-91846009D02*
X49812970Y-91750771D01*
X49812970Y-91750771D02*
X49908208Y-91703152D01*
X49908208Y-91703152D02*
X50098684Y-91703152D01*
X50098684Y-91703152D02*
X50193922Y-91750771D01*
X50193922Y-91750771D02*
X50241541Y-91846009D01*
X50241541Y-91846009D02*
X50241541Y-91941247D01*
X50241541Y-91941247D02*
X49765351Y-92036485D01*
X50670113Y-92274580D02*
X50717732Y-92322200D01*
X50717732Y-92322200D02*
X50670113Y-92369819D01*
X50670113Y-92369819D02*
X50622494Y-92322200D01*
X50622494Y-92322200D02*
X50670113Y-92274580D01*
X50670113Y-92274580D02*
X50670113Y-92369819D01*
X50670113Y-91750771D02*
X50717732Y-91798390D01*
X50717732Y-91798390D02*
X50670113Y-91846009D01*
X50670113Y-91846009D02*
X50622494Y-91798390D01*
X50622494Y-91798390D02*
X50670113Y-91750771D01*
X50670113Y-91750771D02*
X50670113Y-91846009D01*
X52098684Y-91369819D02*
X52193922Y-91369819D01*
X52193922Y-91369819D02*
X52289160Y-91417438D01*
X52289160Y-91417438D02*
X52336779Y-91465057D01*
X52336779Y-91465057D02*
X52384398Y-91560295D01*
X52384398Y-91560295D02*
X52432017Y-91750771D01*
X52432017Y-91750771D02*
X52432017Y-91988866D01*
X52432017Y-91988866D02*
X52384398Y-92179342D01*
X52384398Y-92179342D02*
X52336779Y-92274580D01*
X52336779Y-92274580D02*
X52289160Y-92322200D01*
X52289160Y-92322200D02*
X52193922Y-92369819D01*
X52193922Y-92369819D02*
X52098684Y-92369819D01*
X52098684Y-92369819D02*
X52003446Y-92322200D01*
X52003446Y-92322200D02*
X51955827Y-92274580D01*
X51955827Y-92274580D02*
X51908208Y-92179342D01*
X51908208Y-92179342D02*
X51860589Y-91988866D01*
X51860589Y-91988866D02*
X51860589Y-91750771D01*
X51860589Y-91750771D02*
X51908208Y-91560295D01*
X51908208Y-91560295D02*
X51955827Y-91465057D01*
X51955827Y-91465057D02*
X52003446Y-91417438D01*
X52003446Y-91417438D02*
X52098684Y-91369819D01*
X52812970Y-91465057D02*
X52860589Y-91417438D01*
X52860589Y-91417438D02*
X52955827Y-91369819D01*
X52955827Y-91369819D02*
X53193922Y-91369819D01*
X53193922Y-91369819D02*
X53289160Y-91417438D01*
X53289160Y-91417438D02*
X53336779Y-91465057D01*
X53336779Y-91465057D02*
X53384398Y-91560295D01*
X53384398Y-91560295D02*
X53384398Y-91655533D01*
X53384398Y-91655533D02*
X53336779Y-91798390D01*
X53336779Y-91798390D02*
X52765351Y-92369819D01*
X52765351Y-92369819D02*
X53384398Y-92369819D01*
X54527255Y-91322200D02*
X53670113Y-92607914D01*
X55384398Y-92369819D02*
X54812970Y-92369819D01*
X55098684Y-92369819D02*
X55098684Y-91369819D01*
X55098684Y-91369819D02*
X55003446Y-91512676D01*
X55003446Y-91512676D02*
X54908208Y-91607914D01*
X54908208Y-91607914D02*
X54812970Y-91655533D01*
X55765351Y-91465057D02*
X55812970Y-91417438D01*
X55812970Y-91417438D02*
X55908208Y-91369819D01*
X55908208Y-91369819D02*
X56146303Y-91369819D01*
X56146303Y-91369819D02*
X56241541Y-91417438D01*
X56241541Y-91417438D02*
X56289160Y-91465057D01*
X56289160Y-91465057D02*
X56336779Y-91560295D01*
X56336779Y-91560295D02*
X56336779Y-91655533D01*
X56336779Y-91655533D02*
X56289160Y-91798390D01*
X56289160Y-91798390D02*
X55717732Y-92369819D01*
X55717732Y-92369819D02*
X56336779Y-92369819D01*
X57479636Y-91322200D02*
X56622494Y-92607914D01*
X57765351Y-91465057D02*
X57812970Y-91417438D01*
X57812970Y-91417438D02*
X57908208Y-91369819D01*
X57908208Y-91369819D02*
X58146303Y-91369819D01*
X58146303Y-91369819D02*
X58241541Y-91417438D01*
X58241541Y-91417438D02*
X58289160Y-91465057D01*
X58289160Y-91465057D02*
X58336779Y-91560295D01*
X58336779Y-91560295D02*
X58336779Y-91655533D01*
X58336779Y-91655533D02*
X58289160Y-91798390D01*
X58289160Y-91798390D02*
X57717732Y-92369819D01*
X57717732Y-92369819D02*
X58336779Y-92369819D01*
X59241541Y-91369819D02*
X58765351Y-91369819D01*
X58765351Y-91369819D02*
X58717732Y-91846009D01*
X58717732Y-91846009D02*
X58765351Y-91798390D01*
X58765351Y-91798390D02*
X58860589Y-91750771D01*
X58860589Y-91750771D02*
X59098684Y-91750771D01*
X59098684Y-91750771D02*
X59193922Y-91798390D01*
X59193922Y-91798390D02*
X59241541Y-91846009D01*
X59241541Y-91846009D02*
X59289160Y-91941247D01*
X59289160Y-91941247D02*
X59289160Y-92179342D01*
X59289160Y-92179342D02*
X59241541Y-92274580D01*
X59241541Y-92274580D02*
X59193922Y-92322200D01*
X59193922Y-92322200D02*
X59098684Y-92369819D01*
X59098684Y-92369819D02*
X58860589Y-92369819D01*
X58860589Y-92369819D02*
X58765351Y-92322200D01*
X58765351Y-92322200D02*
X58717732Y-92274580D01*
X116666666Y-56599819D02*
X116666666Y-57314104D01*
X116666666Y-57314104D02*
X116619047Y-57456961D01*
X116619047Y-57456961D02*
X116523809Y-57552200D01*
X116523809Y-57552200D02*
X116380952Y-57599819D01*
X116380952Y-57599819D02*
X116285714Y-57599819D01*
X117047619Y-56599819D02*
X117666666Y-56599819D01*
X117666666Y-56599819D02*
X117333333Y-56980771D01*
X117333333Y-56980771D02*
X117476190Y-56980771D01*
X117476190Y-56980771D02*
X117571428Y-57028390D01*
X117571428Y-57028390D02*
X117619047Y-57076009D01*
X117619047Y-57076009D02*
X117666666Y-57171247D01*
X117666666Y-57171247D02*
X117666666Y-57409342D01*
X117666666Y-57409342D02*
X117619047Y-57504580D01*
X117619047Y-57504580D02*
X117571428Y-57552200D01*
X117571428Y-57552200D02*
X117476190Y-57599819D01*
X117476190Y-57599819D02*
X117190476Y-57599819D01*
X117190476Y-57599819D02*
X117095238Y-57552200D01*
X117095238Y-57552200D02*
X117047619Y-57504580D01*
X57159286Y-58049819D02*
X57159286Y-57049819D01*
X57159286Y-57049819D02*
X57492619Y-57764104D01*
X57492619Y-57764104D02*
X57825952Y-57049819D01*
X57825952Y-57049819D02*
X57825952Y-58049819D01*
X58206905Y-57049819D02*
X58873571Y-58049819D01*
X58873571Y-57049819D02*
X58206905Y-58049819D01*
X59730714Y-57049819D02*
X59254524Y-57049819D01*
X59254524Y-57049819D02*
X59206905Y-57526009D01*
X59206905Y-57526009D02*
X59254524Y-57478390D01*
X59254524Y-57478390D02*
X59349762Y-57430771D01*
X59349762Y-57430771D02*
X59587857Y-57430771D01*
X59587857Y-57430771D02*
X59683095Y-57478390D01*
X59683095Y-57478390D02*
X59730714Y-57526009D01*
X59730714Y-57526009D02*
X59778333Y-57621247D01*
X59778333Y-57621247D02*
X59778333Y-57859342D01*
X59778333Y-57859342D02*
X59730714Y-57954580D01*
X59730714Y-57954580D02*
X59683095Y-58002200D01*
X59683095Y-58002200D02*
X59587857Y-58049819D01*
X59587857Y-58049819D02*
X59349762Y-58049819D01*
X59349762Y-58049819D02*
X59254524Y-58002200D01*
X59254524Y-58002200D02*
X59206905Y-57954580D01*
X92683095Y-83549819D02*
X92683095Y-82549819D01*
X92683095Y-82549819D02*
X93016428Y-83264104D01*
X93016428Y-83264104D02*
X93349761Y-82549819D01*
X93349761Y-82549819D02*
X93349761Y-83549819D01*
X93730714Y-82549819D02*
X94397380Y-83549819D01*
X94397380Y-82549819D02*
X93730714Y-83549819D01*
X95302142Y-83549819D02*
X94730714Y-83549819D01*
X95016428Y-83549819D02*
X95016428Y-82549819D01*
X95016428Y-82549819D02*
X94921190Y-82692676D01*
X94921190Y-82692676D02*
X94825952Y-82787914D01*
X94825952Y-82787914D02*
X94730714Y-82835533D01*
X96206904Y-82549819D02*
X95730714Y-82549819D01*
X95730714Y-82549819D02*
X95683095Y-83026009D01*
X95683095Y-83026009D02*
X95730714Y-82978390D01*
X95730714Y-82978390D02*
X95825952Y-82930771D01*
X95825952Y-82930771D02*
X96064047Y-82930771D01*
X96064047Y-82930771D02*
X96159285Y-82978390D01*
X96159285Y-82978390D02*
X96206904Y-83026009D01*
X96206904Y-83026009D02*
X96254523Y-83121247D01*
X96254523Y-83121247D02*
X96254523Y-83359342D01*
X96254523Y-83359342D02*
X96206904Y-83454580D01*
X96206904Y-83454580D02*
X96159285Y-83502200D01*
X96159285Y-83502200D02*
X96064047Y-83549819D01*
X96064047Y-83549819D02*
X95825952Y-83549819D01*
X95825952Y-83549819D02*
X95730714Y-83502200D01*
X95730714Y-83502200D02*
X95683095Y-83454580D01*
X39159286Y-66549819D02*
X39159286Y-65549819D01*
X39159286Y-65549819D02*
X39492619Y-66264104D01*
X39492619Y-66264104D02*
X39825952Y-65549819D01*
X39825952Y-65549819D02*
X39825952Y-66549819D01*
X40206905Y-65549819D02*
X40873571Y-66549819D01*
X40873571Y-65549819D02*
X40206905Y-66549819D01*
X41206905Y-65645057D02*
X41254524Y-65597438D01*
X41254524Y-65597438D02*
X41349762Y-65549819D01*
X41349762Y-65549819D02*
X41587857Y-65549819D01*
X41587857Y-65549819D02*
X41683095Y-65597438D01*
X41683095Y-65597438D02*
X41730714Y-65645057D01*
X41730714Y-65645057D02*
X41778333Y-65740295D01*
X41778333Y-65740295D02*
X41778333Y-65835533D01*
X41778333Y-65835533D02*
X41730714Y-65978390D01*
X41730714Y-65978390D02*
X41159286Y-66549819D01*
X41159286Y-66549819D02*
X41778333Y-66549819D01*
X34476191Y-41166834D02*
X35142857Y-42166834D01*
X35142857Y-41166834D02*
X34476191Y-42166834D01*
X35523810Y-42166834D02*
X35523810Y-41166834D01*
X35952381Y-41881119D02*
X36428571Y-41881119D01*
X35857143Y-42166834D02*
X36190476Y-41166834D01*
X36190476Y-41166834D02*
X36523809Y-42166834D01*
X37047619Y-41166834D02*
X37238095Y-41166834D01*
X37238095Y-41166834D02*
X37333333Y-41214453D01*
X37333333Y-41214453D02*
X37428571Y-41309691D01*
X37428571Y-41309691D02*
X37476190Y-41500167D01*
X37476190Y-41500167D02*
X37476190Y-41833500D01*
X37476190Y-41833500D02*
X37428571Y-42023976D01*
X37428571Y-42023976D02*
X37333333Y-42119215D01*
X37333333Y-42119215D02*
X37238095Y-42166834D01*
X37238095Y-42166834D02*
X37047619Y-42166834D01*
X37047619Y-42166834D02*
X36952381Y-42119215D01*
X36952381Y-42119215D02*
X36857143Y-42023976D01*
X36857143Y-42023976D02*
X36809524Y-41833500D01*
X36809524Y-41833500D02*
X36809524Y-41500167D01*
X36809524Y-41500167D02*
X36857143Y-41309691D01*
X36857143Y-41309691D02*
X36952381Y-41214453D01*
X36952381Y-41214453D02*
X37047619Y-41166834D01*
X74683095Y-66549819D02*
X74683095Y-65549819D01*
X74683095Y-65549819D02*
X75016428Y-66264104D01*
X75016428Y-66264104D02*
X75349761Y-65549819D01*
X75349761Y-65549819D02*
X75349761Y-66549819D01*
X75730714Y-65549819D02*
X76397380Y-66549819D01*
X76397380Y-65549819D02*
X75730714Y-66549819D01*
X77302142Y-66549819D02*
X76730714Y-66549819D01*
X77016428Y-66549819D02*
X77016428Y-65549819D01*
X77016428Y-65549819D02*
X76921190Y-65692676D01*
X76921190Y-65692676D02*
X76825952Y-65787914D01*
X76825952Y-65787914D02*
X76730714Y-65835533D01*
X77921190Y-65549819D02*
X78016428Y-65549819D01*
X78016428Y-65549819D02*
X78111666Y-65597438D01*
X78111666Y-65597438D02*
X78159285Y-65645057D01*
X78159285Y-65645057D02*
X78206904Y-65740295D01*
X78206904Y-65740295D02*
X78254523Y-65930771D01*
X78254523Y-65930771D02*
X78254523Y-66168866D01*
X78254523Y-66168866D02*
X78206904Y-66359342D01*
X78206904Y-66359342D02*
X78159285Y-66454580D01*
X78159285Y-66454580D02*
X78111666Y-66502200D01*
X78111666Y-66502200D02*
X78016428Y-66549819D01*
X78016428Y-66549819D02*
X77921190Y-66549819D01*
X77921190Y-66549819D02*
X77825952Y-66502200D01*
X77825952Y-66502200D02*
X77778333Y-66454580D01*
X77778333Y-66454580D02*
X77730714Y-66359342D01*
X77730714Y-66359342D02*
X77683095Y-66168866D01*
X77683095Y-66168866D02*
X77683095Y-65930771D01*
X77683095Y-65930771D02*
X77730714Y-65740295D01*
X77730714Y-65740295D02*
X77778333Y-65645057D01*
X77778333Y-65645057D02*
X77825952Y-65597438D01*
X77825952Y-65597438D02*
X77921190Y-65549819D01*
X75159286Y-32549819D02*
X75159286Y-31549819D01*
X75159286Y-31549819D02*
X75492619Y-32264104D01*
X75492619Y-32264104D02*
X75825952Y-31549819D01*
X75825952Y-31549819D02*
X75825952Y-32549819D01*
X76206905Y-31549819D02*
X76873571Y-32549819D01*
X76873571Y-31549819D02*
X76206905Y-32549819D01*
X77397381Y-31978390D02*
X77302143Y-31930771D01*
X77302143Y-31930771D02*
X77254524Y-31883152D01*
X77254524Y-31883152D02*
X77206905Y-31787914D01*
X77206905Y-31787914D02*
X77206905Y-31740295D01*
X77206905Y-31740295D02*
X77254524Y-31645057D01*
X77254524Y-31645057D02*
X77302143Y-31597438D01*
X77302143Y-31597438D02*
X77397381Y-31549819D01*
X77397381Y-31549819D02*
X77587857Y-31549819D01*
X77587857Y-31549819D02*
X77683095Y-31597438D01*
X77683095Y-31597438D02*
X77730714Y-31645057D01*
X77730714Y-31645057D02*
X77778333Y-31740295D01*
X77778333Y-31740295D02*
X77778333Y-31787914D01*
X77778333Y-31787914D02*
X77730714Y-31883152D01*
X77730714Y-31883152D02*
X77683095Y-31930771D01*
X77683095Y-31930771D02*
X77587857Y-31978390D01*
X77587857Y-31978390D02*
X77397381Y-31978390D01*
X77397381Y-31978390D02*
X77302143Y-32026009D01*
X77302143Y-32026009D02*
X77254524Y-32073628D01*
X77254524Y-32073628D02*
X77206905Y-32168866D01*
X77206905Y-32168866D02*
X77206905Y-32359342D01*
X77206905Y-32359342D02*
X77254524Y-32454580D01*
X77254524Y-32454580D02*
X77302143Y-32502200D01*
X77302143Y-32502200D02*
X77397381Y-32549819D01*
X77397381Y-32549819D02*
X77587857Y-32549819D01*
X77587857Y-32549819D02*
X77683095Y-32502200D01*
X77683095Y-32502200D02*
X77730714Y-32454580D01*
X77730714Y-32454580D02*
X77778333Y-32359342D01*
X77778333Y-32359342D02*
X77778333Y-32168866D01*
X77778333Y-32168866D02*
X77730714Y-32073628D01*
X77730714Y-32073628D02*
X77683095Y-32026009D01*
X77683095Y-32026009D02*
X77587857Y-31978390D01*
X56454819Y-31333333D02*
X57169104Y-31333333D01*
X57169104Y-31333333D02*
X57311961Y-31380952D01*
X57311961Y-31380952D02*
X57407200Y-31476190D01*
X57407200Y-31476190D02*
X57454819Y-31619047D01*
X57454819Y-31619047D02*
X57454819Y-31714285D01*
X57454819Y-30333333D02*
X57454819Y-30904761D01*
X57454819Y-30619047D02*
X56454819Y-30619047D01*
X56454819Y-30619047D02*
X56597676Y-30714285D01*
X56597676Y-30714285D02*
X56692914Y-30809523D01*
X56692914Y-30809523D02*
X56740533Y-30904761D01*
X92683095Y-49549819D02*
X92683095Y-48549819D01*
X92683095Y-48549819D02*
X93016428Y-49264104D01*
X93016428Y-49264104D02*
X93349761Y-48549819D01*
X93349761Y-48549819D02*
X93349761Y-49549819D01*
X93730714Y-48549819D02*
X94397380Y-49549819D01*
X94397380Y-48549819D02*
X93730714Y-49549819D01*
X95302142Y-49549819D02*
X94730714Y-49549819D01*
X95016428Y-49549819D02*
X95016428Y-48549819D01*
X95016428Y-48549819D02*
X94921190Y-48692676D01*
X94921190Y-48692676D02*
X94825952Y-48787914D01*
X94825952Y-48787914D02*
X94730714Y-48835533D01*
X95635476Y-48549819D02*
X96254523Y-48549819D01*
X96254523Y-48549819D02*
X95921190Y-48930771D01*
X95921190Y-48930771D02*
X96064047Y-48930771D01*
X96064047Y-48930771D02*
X96159285Y-48978390D01*
X96159285Y-48978390D02*
X96206904Y-49026009D01*
X96206904Y-49026009D02*
X96254523Y-49121247D01*
X96254523Y-49121247D02*
X96254523Y-49359342D01*
X96254523Y-49359342D02*
X96206904Y-49454580D01*
X96206904Y-49454580D02*
X96159285Y-49502200D01*
X96159285Y-49502200D02*
X96064047Y-49549819D01*
X96064047Y-49549819D02*
X95778333Y-49549819D01*
X95778333Y-49549819D02*
X95683095Y-49502200D01*
X95683095Y-49502200D02*
X95635476Y-49454580D01*
X39159286Y-49549819D02*
X39159286Y-48549819D01*
X39159286Y-48549819D02*
X39492619Y-49264104D01*
X39492619Y-49264104D02*
X39825952Y-48549819D01*
X39825952Y-48549819D02*
X39825952Y-49549819D01*
X40206905Y-48549819D02*
X40873571Y-49549819D01*
X40873571Y-48549819D02*
X40206905Y-49549819D01*
X41778333Y-49549819D02*
X41206905Y-49549819D01*
X41492619Y-49549819D02*
X41492619Y-48549819D01*
X41492619Y-48549819D02*
X41397381Y-48692676D01*
X41397381Y-48692676D02*
X41302143Y-48787914D01*
X41302143Y-48787914D02*
X41206905Y-48835533D01*
X57159286Y-75049819D02*
X57159286Y-74049819D01*
X57159286Y-74049819D02*
X57492619Y-74764104D01*
X57492619Y-74764104D02*
X57825952Y-74049819D01*
X57825952Y-74049819D02*
X57825952Y-75049819D01*
X58206905Y-74049819D02*
X58873571Y-75049819D01*
X58873571Y-74049819D02*
X58206905Y-75049819D01*
X59683095Y-74049819D02*
X59492619Y-74049819D01*
X59492619Y-74049819D02*
X59397381Y-74097438D01*
X59397381Y-74097438D02*
X59349762Y-74145057D01*
X59349762Y-74145057D02*
X59254524Y-74287914D01*
X59254524Y-74287914D02*
X59206905Y-74478390D01*
X59206905Y-74478390D02*
X59206905Y-74859342D01*
X59206905Y-74859342D02*
X59254524Y-74954580D01*
X59254524Y-74954580D02*
X59302143Y-75002200D01*
X59302143Y-75002200D02*
X59397381Y-75049819D01*
X59397381Y-75049819D02*
X59587857Y-75049819D01*
X59587857Y-75049819D02*
X59683095Y-75002200D01*
X59683095Y-75002200D02*
X59730714Y-74954580D01*
X59730714Y-74954580D02*
X59778333Y-74859342D01*
X59778333Y-74859342D02*
X59778333Y-74621247D01*
X59778333Y-74621247D02*
X59730714Y-74526009D01*
X59730714Y-74526009D02*
X59683095Y-74478390D01*
X59683095Y-74478390D02*
X59587857Y-74430771D01*
X59587857Y-74430771D02*
X59397381Y-74430771D01*
X59397381Y-74430771D02*
X59302143Y-74478390D01*
X59302143Y-74478390D02*
X59254524Y-74526009D01*
X59254524Y-74526009D02*
X59206905Y-74621247D01*
X110683095Y-66549819D02*
X110683095Y-65549819D01*
X110683095Y-65549819D02*
X111016428Y-66264104D01*
X111016428Y-66264104D02*
X111349761Y-65549819D01*
X111349761Y-65549819D02*
X111349761Y-66549819D01*
X111730714Y-65549819D02*
X112397380Y-66549819D01*
X112397380Y-65549819D02*
X111730714Y-66549819D01*
X113302142Y-66549819D02*
X112730714Y-66549819D01*
X113016428Y-66549819D02*
X113016428Y-65549819D01*
X113016428Y-65549819D02*
X112921190Y-65692676D01*
X112921190Y-65692676D02*
X112825952Y-65787914D01*
X112825952Y-65787914D02*
X112730714Y-65835533D01*
X113873571Y-65978390D02*
X113778333Y-65930771D01*
X113778333Y-65930771D02*
X113730714Y-65883152D01*
X113730714Y-65883152D02*
X113683095Y-65787914D01*
X113683095Y-65787914D02*
X113683095Y-65740295D01*
X113683095Y-65740295D02*
X113730714Y-65645057D01*
X113730714Y-65645057D02*
X113778333Y-65597438D01*
X113778333Y-65597438D02*
X113873571Y-65549819D01*
X113873571Y-65549819D02*
X114064047Y-65549819D01*
X114064047Y-65549819D02*
X114159285Y-65597438D01*
X114159285Y-65597438D02*
X114206904Y-65645057D01*
X114206904Y-65645057D02*
X114254523Y-65740295D01*
X114254523Y-65740295D02*
X114254523Y-65787914D01*
X114254523Y-65787914D02*
X114206904Y-65883152D01*
X114206904Y-65883152D02*
X114159285Y-65930771D01*
X114159285Y-65930771D02*
X114064047Y-65978390D01*
X114064047Y-65978390D02*
X113873571Y-65978390D01*
X113873571Y-65978390D02*
X113778333Y-66026009D01*
X113778333Y-66026009D02*
X113730714Y-66073628D01*
X113730714Y-66073628D02*
X113683095Y-66168866D01*
X113683095Y-66168866D02*
X113683095Y-66359342D01*
X113683095Y-66359342D02*
X113730714Y-66454580D01*
X113730714Y-66454580D02*
X113778333Y-66502200D01*
X113778333Y-66502200D02*
X113873571Y-66549819D01*
X113873571Y-66549819D02*
X114064047Y-66549819D01*
X114064047Y-66549819D02*
X114159285Y-66502200D01*
X114159285Y-66502200D02*
X114206904Y-66454580D01*
X114206904Y-66454580D02*
X114254523Y-66359342D01*
X114254523Y-66359342D02*
X114254523Y-66168866D01*
X114254523Y-66168866D02*
X114206904Y-66073628D01*
X114206904Y-66073628D02*
X114159285Y-66026009D01*
X114159285Y-66026009D02*
X114064047Y-65978390D01*
X92683095Y-66549819D02*
X92683095Y-65549819D01*
X92683095Y-65549819D02*
X93016428Y-66264104D01*
X93016428Y-66264104D02*
X93349761Y-65549819D01*
X93349761Y-65549819D02*
X93349761Y-66549819D01*
X93730714Y-65549819D02*
X94397380Y-66549819D01*
X94397380Y-65549819D02*
X93730714Y-66549819D01*
X95302142Y-66549819D02*
X94730714Y-66549819D01*
X95016428Y-66549819D02*
X95016428Y-65549819D01*
X95016428Y-65549819D02*
X94921190Y-65692676D01*
X94921190Y-65692676D02*
X94825952Y-65787914D01*
X94825952Y-65787914D02*
X94730714Y-65835533D01*
X96159285Y-65883152D02*
X96159285Y-66549819D01*
X95921190Y-65502200D02*
X95683095Y-66216485D01*
X95683095Y-66216485D02*
X96302142Y-66216485D01*
X75159286Y-49549819D02*
X75159286Y-48549819D01*
X75159286Y-48549819D02*
X75492619Y-49264104D01*
X75492619Y-49264104D02*
X75825952Y-48549819D01*
X75825952Y-48549819D02*
X75825952Y-49549819D01*
X76206905Y-48549819D02*
X76873571Y-49549819D01*
X76873571Y-48549819D02*
X76206905Y-49549819D01*
X77302143Y-49549819D02*
X77492619Y-49549819D01*
X77492619Y-49549819D02*
X77587857Y-49502200D01*
X77587857Y-49502200D02*
X77635476Y-49454580D01*
X77635476Y-49454580D02*
X77730714Y-49311723D01*
X77730714Y-49311723D02*
X77778333Y-49121247D01*
X77778333Y-49121247D02*
X77778333Y-48740295D01*
X77778333Y-48740295D02*
X77730714Y-48645057D01*
X77730714Y-48645057D02*
X77683095Y-48597438D01*
X77683095Y-48597438D02*
X77587857Y-48549819D01*
X77587857Y-48549819D02*
X77397381Y-48549819D01*
X77397381Y-48549819D02*
X77302143Y-48597438D01*
X77302143Y-48597438D02*
X77254524Y-48645057D01*
X77254524Y-48645057D02*
X77206905Y-48740295D01*
X77206905Y-48740295D02*
X77206905Y-48978390D01*
X77206905Y-48978390D02*
X77254524Y-49073628D01*
X77254524Y-49073628D02*
X77302143Y-49121247D01*
X77302143Y-49121247D02*
X77397381Y-49168866D01*
X77397381Y-49168866D02*
X77587857Y-49168866D01*
X77587857Y-49168866D02*
X77683095Y-49121247D01*
X77683095Y-49121247D02*
X77730714Y-49073628D01*
X77730714Y-49073628D02*
X77778333Y-48978390D01*
X74683095Y-83549819D02*
X74683095Y-82549819D01*
X74683095Y-82549819D02*
X75016428Y-83264104D01*
X75016428Y-83264104D02*
X75349761Y-82549819D01*
X75349761Y-82549819D02*
X75349761Y-83549819D01*
X75730714Y-82549819D02*
X76397380Y-83549819D01*
X76397380Y-82549819D02*
X75730714Y-83549819D01*
X77302142Y-83549819D02*
X76730714Y-83549819D01*
X77016428Y-83549819D02*
X77016428Y-82549819D01*
X77016428Y-82549819D02*
X76921190Y-82692676D01*
X76921190Y-82692676D02*
X76825952Y-82787914D01*
X76825952Y-82787914D02*
X76730714Y-82835533D01*
X78254523Y-83549819D02*
X77683095Y-83549819D01*
X77968809Y-83549819D02*
X77968809Y-82549819D01*
X77968809Y-82549819D02*
X77873571Y-82692676D01*
X77873571Y-82692676D02*
X77778333Y-82787914D01*
X77778333Y-82787914D02*
X77683095Y-82835533D01*
X110683095Y-32549819D02*
X110683095Y-31549819D01*
X110683095Y-31549819D02*
X111016428Y-32264104D01*
X111016428Y-32264104D02*
X111349761Y-31549819D01*
X111349761Y-31549819D02*
X111349761Y-32549819D01*
X111730714Y-31549819D02*
X112397380Y-32549819D01*
X112397380Y-31549819D02*
X111730714Y-32549819D01*
X113302142Y-32549819D02*
X112730714Y-32549819D01*
X113016428Y-32549819D02*
X113016428Y-31549819D01*
X113016428Y-31549819D02*
X112921190Y-31692676D01*
X112921190Y-31692676D02*
X112825952Y-31787914D01*
X112825952Y-31787914D02*
X112730714Y-31835533D01*
X114159285Y-31549819D02*
X113968809Y-31549819D01*
X113968809Y-31549819D02*
X113873571Y-31597438D01*
X113873571Y-31597438D02*
X113825952Y-31645057D01*
X113825952Y-31645057D02*
X113730714Y-31787914D01*
X113730714Y-31787914D02*
X113683095Y-31978390D01*
X113683095Y-31978390D02*
X113683095Y-32359342D01*
X113683095Y-32359342D02*
X113730714Y-32454580D01*
X113730714Y-32454580D02*
X113778333Y-32502200D01*
X113778333Y-32502200D02*
X113873571Y-32549819D01*
X113873571Y-32549819D02*
X114064047Y-32549819D01*
X114064047Y-32549819D02*
X114159285Y-32502200D01*
X114159285Y-32502200D02*
X114206904Y-32454580D01*
X114206904Y-32454580D02*
X114254523Y-32359342D01*
X114254523Y-32359342D02*
X114254523Y-32121247D01*
X114254523Y-32121247D02*
X114206904Y-32026009D01*
X114206904Y-32026009D02*
X114159285Y-31978390D01*
X114159285Y-31978390D02*
X114064047Y-31930771D01*
X114064047Y-31930771D02*
X113873571Y-31930771D01*
X113873571Y-31930771D02*
X113778333Y-31978390D01*
X113778333Y-31978390D02*
X113730714Y-32026009D01*
X113730714Y-32026009D02*
X113683095Y-32121247D01*
X39159286Y-83549819D02*
X39159286Y-82549819D01*
X39159286Y-82549819D02*
X39492619Y-83264104D01*
X39492619Y-83264104D02*
X39825952Y-82549819D01*
X39825952Y-82549819D02*
X39825952Y-83549819D01*
X40206905Y-82549819D02*
X40873571Y-83549819D01*
X40873571Y-82549819D02*
X40206905Y-83549819D01*
X41159286Y-82549819D02*
X41778333Y-82549819D01*
X41778333Y-82549819D02*
X41445000Y-82930771D01*
X41445000Y-82930771D02*
X41587857Y-82930771D01*
X41587857Y-82930771D02*
X41683095Y-82978390D01*
X41683095Y-82978390D02*
X41730714Y-83026009D01*
X41730714Y-83026009D02*
X41778333Y-83121247D01*
X41778333Y-83121247D02*
X41778333Y-83359342D01*
X41778333Y-83359342D02*
X41730714Y-83454580D01*
X41730714Y-83454580D02*
X41683095Y-83502200D01*
X41683095Y-83502200D02*
X41587857Y-83549819D01*
X41587857Y-83549819D02*
X41302143Y-83549819D01*
X41302143Y-83549819D02*
X41206905Y-83502200D01*
X41206905Y-83502200D02*
X41159286Y-83454580D01*
X92683095Y-32549819D02*
X92683095Y-31549819D01*
X92683095Y-31549819D02*
X93016428Y-32264104D01*
X93016428Y-32264104D02*
X93349761Y-31549819D01*
X93349761Y-31549819D02*
X93349761Y-32549819D01*
X93730714Y-31549819D02*
X94397380Y-32549819D01*
X94397380Y-31549819D02*
X93730714Y-32549819D01*
X95302142Y-32549819D02*
X94730714Y-32549819D01*
X95016428Y-32549819D02*
X95016428Y-31549819D01*
X95016428Y-31549819D02*
X94921190Y-31692676D01*
X94921190Y-31692676D02*
X94825952Y-31787914D01*
X94825952Y-31787914D02*
X94730714Y-31835533D01*
X95683095Y-31645057D02*
X95730714Y-31597438D01*
X95730714Y-31597438D02*
X95825952Y-31549819D01*
X95825952Y-31549819D02*
X96064047Y-31549819D01*
X96064047Y-31549819D02*
X96159285Y-31597438D01*
X96159285Y-31597438D02*
X96206904Y-31645057D01*
X96206904Y-31645057D02*
X96254523Y-31740295D01*
X96254523Y-31740295D02*
X96254523Y-31835533D01*
X96254523Y-31835533D02*
X96206904Y-31978390D01*
X96206904Y-31978390D02*
X95635476Y-32549819D01*
X95635476Y-32549819D02*
X96254523Y-32549819D01*
X57159286Y-41049819D02*
X57159286Y-40049819D01*
X57159286Y-40049819D02*
X57492619Y-40764104D01*
X57492619Y-40764104D02*
X57825952Y-40049819D01*
X57825952Y-40049819D02*
X57825952Y-41049819D01*
X58206905Y-40049819D02*
X58873571Y-41049819D01*
X58873571Y-40049819D02*
X58206905Y-41049819D01*
X59683095Y-40383152D02*
X59683095Y-41049819D01*
X59445000Y-40002200D02*
X59206905Y-40716485D01*
X59206905Y-40716485D02*
X59825952Y-40716485D01*
X110683095Y-49549819D02*
X110683095Y-48549819D01*
X110683095Y-48549819D02*
X111016428Y-49264104D01*
X111016428Y-49264104D02*
X111349761Y-48549819D01*
X111349761Y-48549819D02*
X111349761Y-49549819D01*
X111730714Y-48549819D02*
X112397380Y-49549819D01*
X112397380Y-48549819D02*
X111730714Y-49549819D01*
X113302142Y-49549819D02*
X112730714Y-49549819D01*
X113016428Y-49549819D02*
X113016428Y-48549819D01*
X113016428Y-48549819D02*
X112921190Y-48692676D01*
X112921190Y-48692676D02*
X112825952Y-48787914D01*
X112825952Y-48787914D02*
X112730714Y-48835533D01*
X113635476Y-48549819D02*
X114302142Y-48549819D01*
X114302142Y-48549819D02*
X113873571Y-49549819D01*
X110683095Y-83549819D02*
X110683095Y-82549819D01*
X110683095Y-82549819D02*
X111016428Y-83264104D01*
X111016428Y-83264104D02*
X111349761Y-82549819D01*
X111349761Y-82549819D02*
X111349761Y-83549819D01*
X111730714Y-82549819D02*
X112397380Y-83549819D01*
X112397380Y-82549819D02*
X111730714Y-83549819D01*
X113302142Y-83549819D02*
X112730714Y-83549819D01*
X113016428Y-83549819D02*
X113016428Y-82549819D01*
X113016428Y-82549819D02*
X112921190Y-82692676D01*
X112921190Y-82692676D02*
X112825952Y-82787914D01*
X112825952Y-82787914D02*
X112730714Y-82835533D01*
X113778333Y-83549819D02*
X113968809Y-83549819D01*
X113968809Y-83549819D02*
X114064047Y-83502200D01*
X114064047Y-83502200D02*
X114111666Y-83454580D01*
X114111666Y-83454580D02*
X114206904Y-83311723D01*
X114206904Y-83311723D02*
X114254523Y-83121247D01*
X114254523Y-83121247D02*
X114254523Y-82740295D01*
X114254523Y-82740295D02*
X114206904Y-82645057D01*
X114206904Y-82645057D02*
X114159285Y-82597438D01*
X114159285Y-82597438D02*
X114064047Y-82549819D01*
X114064047Y-82549819D02*
X113873571Y-82549819D01*
X113873571Y-82549819D02*
X113778333Y-82597438D01*
X113778333Y-82597438D02*
X113730714Y-82645057D01*
X113730714Y-82645057D02*
X113683095Y-82740295D01*
X113683095Y-82740295D02*
X113683095Y-82978390D01*
X113683095Y-82978390D02*
X113730714Y-83073628D01*
X113730714Y-83073628D02*
X113778333Y-83121247D01*
X113778333Y-83121247D02*
X113873571Y-83168866D01*
X113873571Y-83168866D02*
X114064047Y-83168866D01*
X114064047Y-83168866D02*
X114159285Y-83121247D01*
X114159285Y-83121247D02*
X114206904Y-83073628D01*
X114206904Y-83073628D02*
X114254523Y-82978390D01*
X48454819Y-31333333D02*
X49169104Y-31333333D01*
X49169104Y-31333333D02*
X49311961Y-31380952D01*
X49311961Y-31380952D02*
X49407200Y-31476190D01*
X49407200Y-31476190D02*
X49454819Y-31619047D01*
X49454819Y-31619047D02*
X49454819Y-31714285D01*
X48550057Y-30904761D02*
X48502438Y-30857142D01*
X48502438Y-30857142D02*
X48454819Y-30761904D01*
X48454819Y-30761904D02*
X48454819Y-30523809D01*
X48454819Y-30523809D02*
X48502438Y-30428571D01*
X48502438Y-30428571D02*
X48550057Y-30380952D01*
X48550057Y-30380952D02*
X48645295Y-30333333D01*
X48645295Y-30333333D02*
X48740533Y-30333333D01*
X48740533Y-30333333D02*
X48883390Y-30380952D01*
X48883390Y-30380952D02*
X49454819Y-30952380D01*
X49454819Y-30952380D02*
X49454819Y-30333333D01*
D11*
%TO.C,J3*%
X115670000Y-58145000D02*
X117000000Y-58145000D01*
X115670000Y-59475000D02*
X115670000Y-58145000D01*
X115670000Y-60745000D02*
X115670000Y-65885000D01*
X115670000Y-60745000D02*
X118330000Y-60745000D01*
X115670000Y-65885000D02*
X118330000Y-65885000D01*
X118330000Y-60745000D02*
X118330000Y-65885000D01*
D10*
%TO.C,MX5*%
X47000000Y-52500000D02*
X48000000Y-52500000D01*
X47000000Y-53500000D02*
X47000000Y-52500000D01*
X47000000Y-66500000D02*
X47000000Y-65500000D01*
X48000000Y-66500000D02*
X47000000Y-66500000D01*
X52000000Y-63700000D02*
X52500000Y-63200000D01*
X52000000Y-67200000D02*
X52500000Y-67700000D01*
X52500000Y-63200000D02*
X55000000Y-63200000D01*
X52500000Y-67700000D02*
X55500000Y-67700000D01*
X55500000Y-67700000D02*
X56000000Y-67200000D01*
X56000000Y-66200000D02*
X56000000Y-67200000D01*
X56500000Y-61000000D02*
X61000000Y-61000000D01*
X56500000Y-61700000D02*
X56500000Y-61000000D01*
X60000000Y-52500000D02*
X61000000Y-52500000D01*
X61000000Y-52500000D02*
X61000000Y-53500000D01*
X61000000Y-61000000D02*
X61000000Y-61500000D01*
X61000000Y-65100000D02*
X61000000Y-65700000D01*
X61000000Y-65500000D02*
X61000000Y-66500000D01*
X61000000Y-65700000D02*
X56500000Y-65700000D01*
X61000000Y-66500000D02*
X60000000Y-66500000D01*
X56000000Y-66200000D02*
G75*
G02*
X56500000Y-65700000I500000J0D01*
G01*
X56500000Y-61700000D02*
G75*
G02*
X55000000Y-63200000I-1500000J0D01*
G01*
%TO.C,MX15*%
X83000000Y-78000000D02*
X84000000Y-78000000D01*
X83000000Y-79000000D02*
X83000000Y-78000000D01*
X83000000Y-92000000D02*
X83000000Y-91000000D01*
X84000000Y-92000000D02*
X83000000Y-92000000D01*
X88000000Y-89200000D02*
X88500000Y-88700000D01*
X88000000Y-92700000D02*
X88500000Y-93200000D01*
X88500000Y-88700000D02*
X91000000Y-88700000D01*
X88500000Y-93200000D02*
X91500000Y-93200000D01*
X91500000Y-93200000D02*
X92000000Y-92700000D01*
X92000000Y-91700000D02*
X92000000Y-92700000D01*
X92500000Y-86500000D02*
X97000000Y-86500000D01*
X92500000Y-87200000D02*
X92500000Y-86500000D01*
X96000000Y-78000000D02*
X97000000Y-78000000D01*
X97000000Y-78000000D02*
X97000000Y-79000000D01*
X97000000Y-86500000D02*
X97000000Y-87000000D01*
X97000000Y-90600000D02*
X97000000Y-91200000D01*
X97000000Y-91000000D02*
X97000000Y-92000000D01*
X97000000Y-91200000D02*
X92500000Y-91200000D01*
X97000000Y-92000000D02*
X96000000Y-92000000D01*
X92000000Y-91700000D02*
G75*
G02*
X92500000Y-91200000I500000J0D01*
G01*
X92500000Y-87200000D02*
G75*
G02*
X91000000Y-88700000I-1500000J0D01*
G01*
%TO.C,MX2*%
X29000000Y-61000000D02*
X30000000Y-61000000D01*
X29000000Y-62000000D02*
X29000000Y-61000000D01*
X29000000Y-75000000D02*
X29000000Y-74000000D01*
X30000000Y-75000000D02*
X29000000Y-75000000D01*
X34000000Y-72200000D02*
X34500000Y-71700000D01*
X34000000Y-75700000D02*
X34500000Y-76200000D01*
X34500000Y-71700000D02*
X37000000Y-71700000D01*
X34500000Y-76200000D02*
X37500000Y-76200000D01*
X37500000Y-76200000D02*
X38000000Y-75700000D01*
X38000000Y-74700000D02*
X38000000Y-75700000D01*
X38500000Y-69500000D02*
X43000000Y-69500000D01*
X38500000Y-70200000D02*
X38500000Y-69500000D01*
X42000000Y-61000000D02*
X43000000Y-61000000D01*
X43000000Y-61000000D02*
X43000000Y-62000000D01*
X43000000Y-69500000D02*
X43000000Y-70000000D01*
X43000000Y-73600000D02*
X43000000Y-74200000D01*
X43000000Y-74000000D02*
X43000000Y-75000000D01*
X43000000Y-74200000D02*
X38500000Y-74200000D01*
X43000000Y-75000000D02*
X42000000Y-75000000D01*
X38000000Y-74700000D02*
G75*
G02*
X38500000Y-74200000I500000J0D01*
G01*
X38500000Y-70200000D02*
G75*
G02*
X37000000Y-71700000I-1500000J0D01*
G01*
D12*
%TO.C,U2*%
X27100000Y-26712015D02*
X27100000Y-43712015D01*
X29100000Y-45712015D02*
X42900000Y-45712015D01*
X31500000Y-23287985D02*
X40500000Y-23287985D01*
X31500000Y-30641285D02*
X31500000Y-23287985D01*
X40500000Y-23287985D02*
X40500000Y-30641285D01*
X40500000Y-30641285D02*
X31500000Y-30641285D01*
X42900000Y-24712925D02*
X29100000Y-24712925D01*
X44900000Y-43712015D02*
X44900000Y-26712015D01*
D11*
X27100000Y-26712015D02*
G75*
G02*
X29100000Y-24712015I2044612J-44612D01*
G01*
X29100000Y-45712015D02*
G75*
G02*
X27100000Y-43712015I44857J2044857D01*
G01*
X42900000Y-24712015D02*
G75*
G02*
X44900000Y-26712015I-44600J-2044600D01*
G01*
X44900000Y-43712015D02*
G75*
G02*
X42900000Y-45712015I-2000000J0D01*
G01*
D13*
X25127000Y-26412015D02*
G75*
G02*
X24873000Y-26412015I-127000J0D01*
G01*
X24873000Y-26412015D02*
G75*
G02*
X25127000Y-26412015I127000J0D01*
G01*
D14*
X27112285Y-26650310D02*
X27115333Y-26601542D01*
X27119397Y-26552521D01*
X27112285Y-26650310D01*
X44887713Y-43782865D02*
X44884665Y-43831633D01*
X44880601Y-43880654D01*
X44875268Y-43929422D01*
X44868664Y-43978190D01*
X44861044Y-44026705D01*
X44852153Y-44074965D01*
X44842248Y-44122970D01*
X44889492Y-43733589D01*
X44887713Y-43782865D01*
D10*
%TO.C,MX10*%
X65000000Y-61000000D02*
X66000000Y-61000000D01*
X65000000Y-62000000D02*
X65000000Y-61000000D01*
X65000000Y-75000000D02*
X65000000Y-74000000D01*
X66000000Y-75000000D02*
X65000000Y-75000000D01*
X70000000Y-72200000D02*
X70500000Y-71700000D01*
X70000000Y-75700000D02*
X70500000Y-76200000D01*
X70500000Y-71700000D02*
X73000000Y-71700000D01*
X70500000Y-76200000D02*
X73500000Y-76200000D01*
X73500000Y-76200000D02*
X74000000Y-75700000D01*
X74000000Y-74700000D02*
X74000000Y-75700000D01*
X74500000Y-69500000D02*
X79000000Y-69500000D01*
X74500000Y-70200000D02*
X74500000Y-69500000D01*
X78000000Y-61000000D02*
X79000000Y-61000000D01*
X79000000Y-61000000D02*
X79000000Y-62000000D01*
X79000000Y-69500000D02*
X79000000Y-70000000D01*
X79000000Y-73600000D02*
X79000000Y-74200000D01*
X79000000Y-74000000D02*
X79000000Y-75000000D01*
X79000000Y-74200000D02*
X74500000Y-74200000D01*
X79000000Y-75000000D02*
X78000000Y-75000000D01*
X74000000Y-74700000D02*
G75*
G02*
X74500000Y-74200000I500000J0D01*
G01*
X74500000Y-70200000D02*
G75*
G02*
X73000000Y-71700000I-1500000J0D01*
G01*
%TO.C,MX8*%
X65000000Y-27000000D02*
X66000000Y-27000000D01*
X65000000Y-28000000D02*
X65000000Y-27000000D01*
X65000000Y-41000000D02*
X65000000Y-40000000D01*
X66000000Y-41000000D02*
X65000000Y-41000000D01*
X70000000Y-38200000D02*
X70500000Y-37700000D01*
X70000000Y-41700000D02*
X70500000Y-42200000D01*
X70500000Y-37700000D02*
X73000000Y-37700000D01*
X70500000Y-42200000D02*
X73500000Y-42200000D01*
X73500000Y-42200000D02*
X74000000Y-41700000D01*
X74000000Y-40700000D02*
X74000000Y-41700000D01*
X74500000Y-35500000D02*
X79000000Y-35500000D01*
X74500000Y-36200000D02*
X74500000Y-35500000D01*
X78000000Y-27000000D02*
X79000000Y-27000000D01*
X79000000Y-27000000D02*
X79000000Y-28000000D01*
X79000000Y-35500000D02*
X79000000Y-36000000D01*
X79000000Y-39600000D02*
X79000000Y-40200000D01*
X79000000Y-40000000D02*
X79000000Y-41000000D01*
X79000000Y-40200000D02*
X74500000Y-40200000D01*
X79000000Y-41000000D02*
X78000000Y-41000000D01*
X74000000Y-40700000D02*
G75*
G02*
X74500000Y-40200000I500000J0D01*
G01*
X74500000Y-36200000D02*
G75*
G02*
X73000000Y-37700000I-1500000J0D01*
G01*
D11*
%TO.C,J1*%
X48090000Y-27940000D02*
X48090000Y-34060000D01*
X48090000Y-30500000D02*
X52450000Y-30500000D01*
X48090000Y-34060000D02*
X55910000Y-34060000D01*
X50350000Y-28700000D02*
X50350000Y-29700000D01*
X50350000Y-29200000D02*
X48090000Y-29200000D01*
X50350000Y-29700000D02*
X48090000Y-29700000D01*
X50350000Y-29700000D02*
X51950000Y-29700000D01*
X50350000Y-32300000D02*
X51950000Y-32300000D01*
X50350000Y-33300000D02*
X50350000Y-32300000D01*
X51950000Y-28700000D02*
X50350000Y-28700000D01*
X51950000Y-29700000D02*
X51950000Y-28700000D01*
X51950000Y-32300000D02*
X51950000Y-33300000D01*
X51950000Y-33300000D02*
X50350000Y-33300000D01*
X52450000Y-30500000D02*
X52450000Y-31500000D01*
X52450000Y-31500000D02*
X48090000Y-31500000D01*
X54310000Y-27940000D02*
X54310000Y-28860000D01*
X54310000Y-28860000D02*
X55910000Y-28860000D01*
X54310000Y-29140000D02*
X54310000Y-28860000D01*
X54310000Y-29140000D02*
X55525000Y-29140000D01*
X54310000Y-33140000D02*
X54310000Y-32860000D01*
X54310000Y-34060000D02*
X54310000Y-33140000D01*
X55910000Y-27940000D02*
X48090000Y-27940000D01*
X55910000Y-28860000D02*
X55910000Y-27940000D01*
X55910000Y-33140000D02*
X54310000Y-33140000D01*
X55910000Y-34060000D02*
X55910000Y-33140000D01*
D10*
%TO.C,MX13*%
X83000000Y-44000000D02*
X84000000Y-44000000D01*
X83000000Y-45000000D02*
X83000000Y-44000000D01*
X83000000Y-58000000D02*
X83000000Y-57000000D01*
X84000000Y-58000000D02*
X83000000Y-58000000D01*
X88000000Y-55200000D02*
X88500000Y-54700000D01*
X88000000Y-58700000D02*
X88500000Y-59200000D01*
X88500000Y-54700000D02*
X91000000Y-54700000D01*
X88500000Y-59200000D02*
X91500000Y-59200000D01*
X91500000Y-59200000D02*
X92000000Y-58700000D01*
X92000000Y-57700000D02*
X92000000Y-58700000D01*
X92500000Y-52500000D02*
X97000000Y-52500000D01*
X92500000Y-53200000D02*
X92500000Y-52500000D01*
X96000000Y-44000000D02*
X97000000Y-44000000D01*
X97000000Y-44000000D02*
X97000000Y-45000000D01*
X97000000Y-52500000D02*
X97000000Y-53000000D01*
X97000000Y-56600000D02*
X97000000Y-57200000D01*
X97000000Y-57000000D02*
X97000000Y-58000000D01*
X97000000Y-57200000D02*
X92500000Y-57200000D01*
X97000000Y-58000000D02*
X96000000Y-58000000D01*
X92000000Y-57700000D02*
G75*
G02*
X92500000Y-57200000I500000J0D01*
G01*
X92500000Y-53200000D02*
G75*
G02*
X91000000Y-54700000I-1500000J0D01*
G01*
%TO.C,MX1*%
X29000000Y-44000000D02*
X30000000Y-44000000D01*
X29000000Y-45000000D02*
X29000000Y-44000000D01*
X29000000Y-58000000D02*
X29000000Y-57000000D01*
X30000000Y-58000000D02*
X29000000Y-58000000D01*
X34000000Y-55200000D02*
X34500000Y-54700000D01*
X34000000Y-58700000D02*
X34500000Y-59200000D01*
X34500000Y-54700000D02*
X37000000Y-54700000D01*
X34500000Y-59200000D02*
X37500000Y-59200000D01*
X37500000Y-59200000D02*
X38000000Y-58700000D01*
X38000000Y-57700000D02*
X38000000Y-58700000D01*
X38500000Y-52500000D02*
X43000000Y-52500000D01*
X38500000Y-53200000D02*
X38500000Y-52500000D01*
X42000000Y-44000000D02*
X43000000Y-44000000D01*
X43000000Y-44000000D02*
X43000000Y-45000000D01*
X43000000Y-52500000D02*
X43000000Y-53000000D01*
X43000000Y-56600000D02*
X43000000Y-57200000D01*
X43000000Y-57000000D02*
X43000000Y-58000000D01*
X43000000Y-57200000D02*
X38500000Y-57200000D01*
X43000000Y-58000000D02*
X42000000Y-58000000D01*
X38000000Y-57700000D02*
G75*
G02*
X38500000Y-57200000I500000J0D01*
G01*
X38500000Y-53200000D02*
G75*
G02*
X37000000Y-54700000I-1500000J0D01*
G01*
%TO.C,MX6*%
X47000000Y-69500000D02*
X48000000Y-69500000D01*
X47000000Y-70500000D02*
X47000000Y-69500000D01*
X47000000Y-83500000D02*
X47000000Y-82500000D01*
X48000000Y-83500000D02*
X47000000Y-83500000D01*
X52000000Y-80700000D02*
X52500000Y-80200000D01*
X52000000Y-84200000D02*
X52500000Y-84700000D01*
X52500000Y-80200000D02*
X55000000Y-80200000D01*
X52500000Y-84700000D02*
X55500000Y-84700000D01*
X55500000Y-84700000D02*
X56000000Y-84200000D01*
X56000000Y-83200000D02*
X56000000Y-84200000D01*
X56500000Y-78000000D02*
X61000000Y-78000000D01*
X56500000Y-78700000D02*
X56500000Y-78000000D01*
X60000000Y-69500000D02*
X61000000Y-69500000D01*
X61000000Y-69500000D02*
X61000000Y-70500000D01*
X61000000Y-78000000D02*
X61000000Y-78500000D01*
X61000000Y-82100000D02*
X61000000Y-82700000D01*
X61000000Y-82500000D02*
X61000000Y-83500000D01*
X61000000Y-82700000D02*
X56500000Y-82700000D01*
X61000000Y-83500000D02*
X60000000Y-83500000D01*
X56000000Y-83200000D02*
G75*
G02*
X56500000Y-82700000I500000J0D01*
G01*
X56500000Y-78700000D02*
G75*
G02*
X55000000Y-80200000I-1500000J0D01*
G01*
%TO.C,MX18*%
X101000000Y-61000000D02*
X102000000Y-61000000D01*
X101000000Y-62000000D02*
X101000000Y-61000000D01*
X101000000Y-75000000D02*
X101000000Y-74000000D01*
X102000000Y-75000000D02*
X101000000Y-75000000D01*
X106000000Y-72200000D02*
X106500000Y-71700000D01*
X106000000Y-75700000D02*
X106500000Y-76200000D01*
X106500000Y-71700000D02*
X109000000Y-71700000D01*
X106500000Y-76200000D02*
X109500000Y-76200000D01*
X109500000Y-76200000D02*
X110000000Y-75700000D01*
X110000000Y-74700000D02*
X110000000Y-75700000D01*
X110500000Y-69500000D02*
X115000000Y-69500000D01*
X110500000Y-70200000D02*
X110500000Y-69500000D01*
X114000000Y-61000000D02*
X115000000Y-61000000D01*
X115000000Y-61000000D02*
X115000000Y-62000000D01*
X115000000Y-69500000D02*
X115000000Y-70000000D01*
X115000000Y-73600000D02*
X115000000Y-74200000D01*
X115000000Y-74000000D02*
X115000000Y-75000000D01*
X115000000Y-74200000D02*
X110500000Y-74200000D01*
X115000000Y-75000000D02*
X114000000Y-75000000D01*
X110000000Y-74700000D02*
G75*
G02*
X110500000Y-74200000I500000J0D01*
G01*
X110500000Y-70200000D02*
G75*
G02*
X109000000Y-71700000I-1500000J0D01*
G01*
%TO.C,MX14*%
X83000000Y-61000000D02*
X84000000Y-61000000D01*
X83000000Y-62000000D02*
X83000000Y-61000000D01*
X83000000Y-75000000D02*
X83000000Y-74000000D01*
X84000000Y-75000000D02*
X83000000Y-75000000D01*
X88000000Y-72200000D02*
X88500000Y-71700000D01*
X88000000Y-75700000D02*
X88500000Y-76200000D01*
X88500000Y-71700000D02*
X91000000Y-71700000D01*
X88500000Y-76200000D02*
X91500000Y-76200000D01*
X91500000Y-76200000D02*
X92000000Y-75700000D01*
X92000000Y-74700000D02*
X92000000Y-75700000D01*
X92500000Y-69500000D02*
X97000000Y-69500000D01*
X92500000Y-70200000D02*
X92500000Y-69500000D01*
X96000000Y-61000000D02*
X97000000Y-61000000D01*
X97000000Y-61000000D02*
X97000000Y-62000000D01*
X97000000Y-69500000D02*
X97000000Y-70000000D01*
X97000000Y-73600000D02*
X97000000Y-74200000D01*
X97000000Y-74000000D02*
X97000000Y-75000000D01*
X97000000Y-74200000D02*
X92500000Y-74200000D01*
X97000000Y-75000000D02*
X96000000Y-75000000D01*
X92000000Y-74700000D02*
G75*
G02*
X92500000Y-74200000I500000J0D01*
G01*
X92500000Y-70200000D02*
G75*
G02*
X91000000Y-71700000I-1500000J0D01*
G01*
%TO.C,MX9*%
X65000000Y-44000000D02*
X66000000Y-44000000D01*
X65000000Y-45000000D02*
X65000000Y-44000000D01*
X65000000Y-58000000D02*
X65000000Y-57000000D01*
X66000000Y-58000000D02*
X65000000Y-58000000D01*
X70000000Y-55200000D02*
X70500000Y-54700000D01*
X70000000Y-58700000D02*
X70500000Y-59200000D01*
X70500000Y-54700000D02*
X73000000Y-54700000D01*
X70500000Y-59200000D02*
X73500000Y-59200000D01*
X73500000Y-59200000D02*
X74000000Y-58700000D01*
X74000000Y-57700000D02*
X74000000Y-58700000D01*
X74500000Y-52500000D02*
X79000000Y-52500000D01*
X74500000Y-53200000D02*
X74500000Y-52500000D01*
X78000000Y-44000000D02*
X79000000Y-44000000D01*
X79000000Y-44000000D02*
X79000000Y-45000000D01*
X79000000Y-52500000D02*
X79000000Y-53000000D01*
X79000000Y-56600000D02*
X79000000Y-57200000D01*
X79000000Y-57000000D02*
X79000000Y-58000000D01*
X79000000Y-57200000D02*
X74500000Y-57200000D01*
X79000000Y-58000000D02*
X78000000Y-58000000D01*
X74000000Y-57700000D02*
G75*
G02*
X74500000Y-57200000I500000J0D01*
G01*
X74500000Y-53200000D02*
G75*
G02*
X73000000Y-54700000I-1500000J0D01*
G01*
%TO.C,MX11*%
X65000000Y-78000000D02*
X66000000Y-78000000D01*
X65000000Y-79000000D02*
X65000000Y-78000000D01*
X65000000Y-92000000D02*
X65000000Y-91000000D01*
X66000000Y-92000000D02*
X65000000Y-92000000D01*
X70000000Y-89200000D02*
X70500000Y-88700000D01*
X70000000Y-92700000D02*
X70500000Y-93200000D01*
X70500000Y-88700000D02*
X73000000Y-88700000D01*
X70500000Y-93200000D02*
X73500000Y-93200000D01*
X73500000Y-93200000D02*
X74000000Y-92700000D01*
X74000000Y-91700000D02*
X74000000Y-92700000D01*
X74500000Y-86500000D02*
X79000000Y-86500000D01*
X74500000Y-87200000D02*
X74500000Y-86500000D01*
X78000000Y-78000000D02*
X79000000Y-78000000D01*
X79000000Y-78000000D02*
X79000000Y-79000000D01*
X79000000Y-86500000D02*
X79000000Y-87000000D01*
X79000000Y-90600000D02*
X79000000Y-91200000D01*
X79000000Y-91000000D02*
X79000000Y-92000000D01*
X79000000Y-91200000D02*
X74500000Y-91200000D01*
X79000000Y-92000000D02*
X78000000Y-92000000D01*
X74000000Y-91700000D02*
G75*
G02*
X74500000Y-91200000I500000J0D01*
G01*
X74500000Y-87200000D02*
G75*
G02*
X73000000Y-88700000I-1500000J0D01*
G01*
%TO.C,MX16*%
X101000000Y-27000000D02*
X102000000Y-27000000D01*
X101000000Y-28000000D02*
X101000000Y-27000000D01*
X101000000Y-41000000D02*
X101000000Y-40000000D01*
X102000000Y-41000000D02*
X101000000Y-41000000D01*
X106000000Y-38200000D02*
X106500000Y-37700000D01*
X106000000Y-41700000D02*
X106500000Y-42200000D01*
X106500000Y-37700000D02*
X109000000Y-37700000D01*
X106500000Y-42200000D02*
X109500000Y-42200000D01*
X109500000Y-42200000D02*
X110000000Y-41700000D01*
X110000000Y-40700000D02*
X110000000Y-41700000D01*
X110500000Y-35500000D02*
X115000000Y-35500000D01*
X110500000Y-36200000D02*
X110500000Y-35500000D01*
X114000000Y-27000000D02*
X115000000Y-27000000D01*
X115000000Y-27000000D02*
X115000000Y-28000000D01*
X115000000Y-35500000D02*
X115000000Y-36000000D01*
X115000000Y-39600000D02*
X115000000Y-40200000D01*
X115000000Y-40000000D02*
X115000000Y-41000000D01*
X115000000Y-40200000D02*
X110500000Y-40200000D01*
X115000000Y-41000000D02*
X114000000Y-41000000D01*
X110000000Y-40700000D02*
G75*
G02*
X110500000Y-40200000I500000J0D01*
G01*
X110500000Y-36200000D02*
G75*
G02*
X109000000Y-37700000I-1500000J0D01*
G01*
%TO.C,MX3*%
X29000000Y-78000000D02*
X30000000Y-78000000D01*
X29000000Y-79000000D02*
X29000000Y-78000000D01*
X29000000Y-92000000D02*
X29000000Y-91000000D01*
X30000000Y-92000000D02*
X29000000Y-92000000D01*
X34000000Y-89200000D02*
X34500000Y-88700000D01*
X34000000Y-92700000D02*
X34500000Y-93200000D01*
X34500000Y-88700000D02*
X37000000Y-88700000D01*
X34500000Y-93200000D02*
X37500000Y-93200000D01*
X37500000Y-93200000D02*
X38000000Y-92700000D01*
X38000000Y-91700000D02*
X38000000Y-92700000D01*
X38500000Y-86500000D02*
X43000000Y-86500000D01*
X38500000Y-87200000D02*
X38500000Y-86500000D01*
X42000000Y-78000000D02*
X43000000Y-78000000D01*
X43000000Y-78000000D02*
X43000000Y-79000000D01*
X43000000Y-86500000D02*
X43000000Y-87000000D01*
X43000000Y-90600000D02*
X43000000Y-91200000D01*
X43000000Y-91000000D02*
X43000000Y-92000000D01*
X43000000Y-91200000D02*
X38500000Y-91200000D01*
X43000000Y-92000000D02*
X42000000Y-92000000D01*
X38000000Y-91700000D02*
G75*
G02*
X38500000Y-91200000I500000J0D01*
G01*
X38500000Y-87200000D02*
G75*
G02*
X37000000Y-88700000I-1500000J0D01*
G01*
%TO.C,MX12*%
X83000000Y-27000000D02*
X84000000Y-27000000D01*
X83000000Y-28000000D02*
X83000000Y-27000000D01*
X83000000Y-41000000D02*
X83000000Y-40000000D01*
X84000000Y-41000000D02*
X83000000Y-41000000D01*
X88000000Y-38200000D02*
X88500000Y-37700000D01*
X88000000Y-41700000D02*
X88500000Y-42200000D01*
X88500000Y-37700000D02*
X91000000Y-37700000D01*
X88500000Y-42200000D02*
X91500000Y-42200000D01*
X91500000Y-42200000D02*
X92000000Y-41700000D01*
X92000000Y-40700000D02*
X92000000Y-41700000D01*
X92500000Y-35500000D02*
X97000000Y-35500000D01*
X92500000Y-36200000D02*
X92500000Y-35500000D01*
X96000000Y-27000000D02*
X97000000Y-27000000D01*
X97000000Y-27000000D02*
X97000000Y-28000000D01*
X97000000Y-35500000D02*
X97000000Y-36000000D01*
X97000000Y-39600000D02*
X97000000Y-40200000D01*
X97000000Y-40000000D02*
X97000000Y-41000000D01*
X97000000Y-40200000D02*
X92500000Y-40200000D01*
X97000000Y-41000000D02*
X96000000Y-41000000D01*
X92000000Y-40700000D02*
G75*
G02*
X92500000Y-40200000I500000J0D01*
G01*
X92500000Y-36200000D02*
G75*
G02*
X91000000Y-37700000I-1500000J0D01*
G01*
%TO.C,MX4*%
X47000000Y-35500000D02*
X48000000Y-35500000D01*
X47000000Y-36500000D02*
X47000000Y-35500000D01*
X47000000Y-49500000D02*
X47000000Y-48500000D01*
X48000000Y-49500000D02*
X47000000Y-49500000D01*
X52000000Y-46700000D02*
X52500000Y-46200000D01*
X52000000Y-50200000D02*
X52500000Y-50700000D01*
X52500000Y-46200000D02*
X55000000Y-46200000D01*
X52500000Y-50700000D02*
X55500000Y-50700000D01*
X55500000Y-50700000D02*
X56000000Y-50200000D01*
X56000000Y-49200000D02*
X56000000Y-50200000D01*
X56500000Y-44000000D02*
X61000000Y-44000000D01*
X56500000Y-44700000D02*
X56500000Y-44000000D01*
X60000000Y-35500000D02*
X61000000Y-35500000D01*
X61000000Y-35500000D02*
X61000000Y-36500000D01*
X61000000Y-44000000D02*
X61000000Y-44500000D01*
X61000000Y-48100000D02*
X61000000Y-48700000D01*
X61000000Y-48500000D02*
X61000000Y-49500000D01*
X61000000Y-48700000D02*
X56500000Y-48700000D01*
X61000000Y-49500000D02*
X60000000Y-49500000D01*
X56000000Y-49200000D02*
G75*
G02*
X56500000Y-48700000I500000J0D01*
G01*
X56500000Y-44700000D02*
G75*
G02*
X55000000Y-46200000I-1500000J0D01*
G01*
%TO.C,MX17*%
X101000000Y-44000000D02*
X102000000Y-44000000D01*
X101000000Y-45000000D02*
X101000000Y-44000000D01*
X101000000Y-58000000D02*
X101000000Y-57000000D01*
X102000000Y-58000000D02*
X101000000Y-58000000D01*
X106000000Y-55200000D02*
X106500000Y-54700000D01*
X106000000Y-58700000D02*
X106500000Y-59200000D01*
X106500000Y-54700000D02*
X109000000Y-54700000D01*
X106500000Y-59200000D02*
X109500000Y-59200000D01*
X109500000Y-59200000D02*
X110000000Y-58700000D01*
X110000000Y-57700000D02*
X110000000Y-58700000D01*
X110500000Y-52500000D02*
X115000000Y-52500000D01*
X110500000Y-53200000D02*
X110500000Y-52500000D01*
X114000000Y-44000000D02*
X115000000Y-44000000D01*
X115000000Y-44000000D02*
X115000000Y-45000000D01*
X115000000Y-52500000D02*
X115000000Y-53000000D01*
X115000000Y-56600000D02*
X115000000Y-57200000D01*
X115000000Y-57000000D02*
X115000000Y-58000000D01*
X115000000Y-57200000D02*
X110500000Y-57200000D01*
X115000000Y-58000000D02*
X114000000Y-58000000D01*
X110000000Y-57700000D02*
G75*
G02*
X110500000Y-57200000I500000J0D01*
G01*
X110500000Y-53200000D02*
G75*
G02*
X109000000Y-54700000I-1500000J0D01*
G01*
%TO.C,MX19*%
X101000000Y-78000000D02*
X102000000Y-78000000D01*
X101000000Y-79000000D02*
X101000000Y-78000000D01*
X101000000Y-92000000D02*
X101000000Y-91000000D01*
X102000000Y-92000000D02*
X101000000Y-92000000D01*
X106000000Y-89200000D02*
X106500000Y-88700000D01*
X106000000Y-92700000D02*
X106500000Y-93200000D01*
X106500000Y-88700000D02*
X109000000Y-88700000D01*
X106500000Y-93200000D02*
X109500000Y-93200000D01*
X109500000Y-93200000D02*
X110000000Y-92700000D01*
X110000000Y-91700000D02*
X110000000Y-92700000D01*
X110500000Y-86500000D02*
X115000000Y-86500000D01*
X110500000Y-87200000D02*
X110500000Y-86500000D01*
X114000000Y-78000000D02*
X115000000Y-78000000D01*
X115000000Y-78000000D02*
X115000000Y-79000000D01*
X115000000Y-86500000D02*
X115000000Y-87000000D01*
X115000000Y-90600000D02*
X115000000Y-91200000D01*
X115000000Y-91000000D02*
X115000000Y-92000000D01*
X115000000Y-91200000D02*
X110500000Y-91200000D01*
X115000000Y-92000000D02*
X114000000Y-92000000D01*
X110000000Y-91700000D02*
G75*
G02*
X110500000Y-91200000I500000J0D01*
G01*
X110500000Y-87200000D02*
G75*
G02*
X109000000Y-88700000I-1500000J0D01*
G01*
D11*
%TO.C,J2*%
X50090000Y-27940000D02*
X50090000Y-28860000D01*
X50090000Y-28860000D02*
X51690000Y-28860000D01*
X50090000Y-33140000D02*
X50090000Y-34060000D01*
X50090000Y-34060000D02*
X57910000Y-34060000D01*
X51690000Y-27940000D02*
X51690000Y-28860000D01*
X51690000Y-28860000D02*
X51690000Y-29140000D01*
X51690000Y-32860000D02*
X50475000Y-32860000D01*
X51690000Y-32860000D02*
X51690000Y-33140000D01*
X51690000Y-33140000D02*
X50090000Y-33140000D01*
X51690000Y-34060000D02*
X51690000Y-33140000D01*
X53550000Y-30500000D02*
X57910000Y-30500000D01*
X53550000Y-31500000D02*
X53550000Y-30500000D01*
X54050000Y-28700000D02*
X55650000Y-28700000D01*
X54050000Y-29700000D02*
X54050000Y-28700000D01*
X54050000Y-32300000D02*
X54050000Y-33300000D01*
X54050000Y-33300000D02*
X55650000Y-33300000D01*
X55650000Y-28700000D02*
X55650000Y-29700000D01*
X55650000Y-29700000D02*
X54050000Y-29700000D01*
X55650000Y-32300000D02*
X54050000Y-32300000D01*
X55650000Y-32300000D02*
X57910000Y-32300000D01*
X55650000Y-32800000D02*
X57910000Y-32800000D01*
X55650000Y-33300000D02*
X55650000Y-32300000D01*
X57910000Y-27940000D02*
X50090000Y-27940000D01*
X57910000Y-31500000D02*
X53550000Y-31500000D01*
X57910000Y-34060000D02*
X57910000Y-27940000D01*
%TD*%
M02*
